<svg width="792" height="552" viewBox="0 0 792 552" fill="none" xmlns="http://www.w3.org/2000/svg">
<rect width="792" height="552" rx="4" fill="#D9D9D9"/>
<path fill-rule="evenodd" clip-rule="evenodd" d="M396 294.34C420.853 294.34 441 274.192 441 249.339C441 224.487 420.853 204.339 396 204.339C371.147 204.339 351 224.487 351 249.339C351 274.192 371.147 294.34 396 294.34ZM404.66 236.692L404.66 236.692C404.62 236.793 404.587 236.877 404.531 236.947L404.178 237.407C403.528 238.256 402.878 239.104 402.213 239.944C401.523 240.82 400.823 241.695 400.117 242.56C399.792 242.96 399.457 243.353 399.123 243.747C398.934 243.97 398.745 244.193 398.557 244.417C398.373 244.638 398.19 244.859 398.007 245.081L398.006 245.082C397.639 245.525 397.273 245.968 396.902 246.406C396.706 246.637 396.507 246.866 396.308 247.096C396.109 247.325 395.91 247.555 395.714 247.785C395.448 248.098 395.184 248.411 394.919 248.724L394.918 248.726C394.389 249.351 393.86 249.977 393.326 250.603C392.982 251.005 392.636 251.404 392.289 251.803L392.289 251.803L392.289 251.804C392.069 252.057 391.849 252.31 391.628 252.566C391.39 252.841 391.151 253.123 390.891 253.43C390.955 253.434 391.017 253.438 391.078 253.442L391.082 253.442C391.192 253.449 391.302 253.455 391.427 253.462C391.416 253.892 391.193 254.205 390.965 254.497C390.784 254.729 390.581 254.944 390.377 255.158L390.377 255.158C390.288 255.252 390.198 255.346 390.111 255.441C389.75 255.837 389.39 256.232 389.031 256.628C388.672 257.023 388.312 257.418 387.952 257.813C387.827 257.948 387.704 258.086 387.58 258.224C387.457 258.362 387.334 258.5 387.209 258.635C386.961 258.904 386.712 259.173 386.462 259.443C386.097 259.837 385.731 260.233 385.368 260.63C385.071 260.959 384.779 261.29 384.487 261.622L384.487 261.622C384.195 261.954 383.904 262.285 383.607 262.614C383.537 262.69 383.466 262.766 383.394 262.841L383.394 262.841C383.251 262.991 383.106 263.143 382.975 263.309C383.304 263.247 383.577 263.09 383.845 262.936C383.92 262.893 383.994 262.85 384.068 262.81L384.559 262.542C385.393 262.086 386.225 261.63 387.05 261.16C388.122 260.555 389.193 259.956 390.313 259.436C391.809 258.752 393.353 258.221 394.981 257.903C395.947 257.712 396.907 257.584 397.894 257.595C398.389 257.602 398.884 257.6 399.38 257.597L399.381 257.597C399.63 257.596 399.878 257.595 400.128 257.595C400.346 257.43 400.368 257.193 400.389 256.963C400.397 256.874 400.406 256.786 400.425 256.704C400.754 255.266 401.21 253.871 401.751 252.497C402.218 251.298 402.78 250.141 403.417 249.016C403.659 248.59 403.922 248.174 404.185 247.757C404.292 247.588 404.399 247.419 404.505 247.25C405.3 245.982 406.223 244.799 407.163 243.631C407.708 242.952 408.289 242.301 408.87 241.649C409.098 241.394 409.325 241.14 409.55 240.883C409.909 240.474 410.271 240.068 410.633 239.662L410.634 239.661C411.116 239.119 411.599 238.578 412.075 238.029C412.23 237.852 412.356 237.654 412.487 237.447C412.549 237.349 412.612 237.249 412.68 237.148C412.256 236.83 411.789 236.639 411.327 236.464C410.405 236.112 409.477 235.772 408.549 235.431L408.548 235.431C407.656 235.103 406.763 234.775 405.873 234.437C405.035 234.119 404.213 233.758 403.406 233.371C402.855 233.106 402.292 232.83 401.862 232.379C401.815 232.331 401.779 232.276 401.739 232.215C401.717 232.181 401.693 232.145 401.666 232.108C401.963 231.668 402.43 231.562 402.886 231.519C403.544 231.466 404.207 231.493 404.86 231.652C405.836 231.891 406.818 232.124 407.799 232.347C407.999 232.392 408.203 232.416 408.446 232.446C408.576 232.461 408.718 232.478 408.876 232.501C408.386 232.18 407.941 231.994 407.506 231.811L407.506 231.811L407.505 231.81C407.451 231.788 407.397 231.765 407.343 231.742C406.584 231.424 405.82 231.1 405.247 230.49C404.833 230.05 404.701 229.53 404.674 228.909C405.062 228.878 405.436 228.884 405.806 228.889H405.806C405.947 228.891 406.088 228.893 406.229 228.893C406.556 228.89 406.883 228.891 407.217 228.892H407.217C407.386 228.893 407.557 228.893 407.73 228.893C407.738 228.829 407.745 228.778 407.753 228.727L407.762 228.665C407.601 228.562 407.441 228.459 407.283 228.358C406.945 228.141 406.616 227.93 406.308 227.731C406.218 227.381 406.335 227.153 406.521 226.967C406.639 226.852 406.777 226.755 406.931 226.646C407.011 226.59 407.095 226.53 407.184 226.463C407.238 226.19 407.145 225.902 407.051 225.606C407.006 225.466 406.96 225.323 406.929 225.179C406.765 224.421 406.77 223.673 406.993 222.935C407.279 221.991 407.773 221.147 408.393 220.367C408.924 219.704 409.481 219.062 410.128 218.505C410.749 217.975 411.38 217.46 412.038 216.977C413.142 216.16 414.245 215.349 415.386 214.585C416.248 214.007 417.135 213.464 418.021 212.921L418.021 212.921L418.022 212.921C418.292 212.756 418.561 212.591 418.829 212.425C418.844 212.416 418.858 212.406 418.874 212.396C418.992 212.317 419.133 212.224 419.306 212.388C419.131 212.712 418.84 212.945 418.548 213.168C417.675 213.84 416.79 214.496 415.903 215.154L415.476 215.471C415.068 215.776 414.658 216.078 414.248 216.38L414.248 216.381C413.838 216.683 413.428 216.985 413.02 217.29C412.754 217.492 412.494 217.699 412.24 217.922C412.084 218.059 411.927 218.195 411.77 218.331L411.77 218.331L411.77 218.332C411.295 218.743 410.82 219.156 410.378 219.598C409.502 220.474 408.69 221.402 408.139 222.505C407.831 223.126 407.624 223.763 407.619 224.474C407.619 225.264 408.001 225.827 408.622 226.256C409.375 226.782 410.245 227.084 411.157 227.254L411.158 227.254C412.388 227.482 413.619 227.71 414.861 227.896C415.678 228.018 416.479 228.203 417.253 228.463C417.609 228.58 417.954 228.734 418.277 228.92C418.399 228.991 418.494 229.104 418.594 229.222C418.642 229.279 418.691 229.337 418.744 229.392C418.293 229.747 417.81 229.875 417.296 229.906C416.192 229.965 415.126 229.779 414.07 229.487C412.669 229.1 411.264 228.723 409.858 228.352C409.662 228.298 409.459 228.257 409.258 228.216L409.258 228.216C409.203 228.205 409.148 228.194 409.094 228.182C409.322 228.49 409.698 228.739 410.176 228.904C411.025 229.201 411.9 229.387 412.776 229.567C412.91 229.594 413.045 229.621 413.18 229.647C413.725 229.754 414.269 229.862 414.797 230.023C415.529 230.246 416.267 230.474 416.908 230.888C417.221 231.09 417.471 231.36 417.741 231.684C417.353 231.809 417.007 231.781 416.678 231.755C416.643 231.753 416.609 231.75 416.574 231.747C416.323 231.729 416.075 231.685 415.828 231.641C415.652 231.61 415.477 231.578 415.301 231.556C414.316 231.436 413.358 231.2 412.401 230.964C412.218 230.919 412.035 230.874 411.852 230.83C411.506 230.746 411.161 230.661 410.815 230.576L410.815 230.576C409.91 230.354 409.006 230.133 408.096 229.933C407.758 229.86 407.41 229.835 407.055 229.809C406.892 229.797 406.728 229.785 406.563 229.769C406.68 230.135 406.818 230.357 407.136 230.527C407.725 230.845 408.319 231.164 408.945 231.413C410.085 231.87 411.27 232.205 412.455 232.541C412.797 232.638 413.14 232.735 413.481 232.835C414.181 233.037 414.871 233.265 415.561 233.493L415.561 233.493C415.702 233.539 415.837 233.598 415.977 233.659C416.032 233.683 416.088 233.708 416.145 233.732C416.176 233.79 416.209 233.849 416.249 233.919C416.263 233.944 416.277 233.97 416.293 233.998C416.302 234.013 416.31 234.028 416.32 234.045C416.244 234.081 416.17 234.12 416.098 234.159C415.936 234.245 415.777 234.33 415.609 234.374C415.301 234.453 414.977 234.485 414.664 234.501C413.375 234.559 412.123 234.331 410.86 234.092C410.025 233.931 409.199 233.738 408.373 233.545L408.373 233.545L408.373 233.545C407.783 233.407 407.193 233.269 406.6 233.143C406.472 233.116 406.344 233.085 406.215 233.055C405.763 232.949 405.305 232.841 404.818 232.862C404.883 233.075 405.049 233.146 405.207 233.214C405.229 233.224 405.252 233.234 405.274 233.244C405.356 233.279 405.438 233.315 405.52 233.352C405.985 233.556 406.451 233.761 406.929 233.928C407.801 234.232 408.68 234.512 409.56 234.793L409.958 234.92C410.45 235.074 410.944 235.224 411.437 235.375L411.438 235.375C412.068 235.568 412.7 235.761 413.327 235.96C413.474 236.005 413.612 236.082 413.754 236.16L413.754 236.16C413.812 236.193 413.872 236.226 413.932 236.257C413.805 236.734 413.593 237.127 413.354 237.514C412.753 238.497 412.047 239.405 411.339 240.315L411.339 240.315L411.136 240.576C410.76 241.058 410.362 241.523 409.964 241.989C409.705 242.29 409.447 242.592 409.194 242.899C408.741 243.451 408.29 244.005 407.839 244.56C407.388 245.114 406.937 245.669 406.483 246.22C405.454 247.472 404.611 248.836 403.9 250.274C403.21 251.669 402.648 253.112 402.388 254.645C402.307 255.125 402.237 255.606 402.167 256.088L402.167 256.088L402.167 256.088C402.127 256.369 402.086 256.651 402.043 256.932L402.043 256.932L402.042 256.934C401.952 257.517 401.862 258.1 401.762 258.736C401.173 258.762 400.568 258.741 399.968 258.72C399.846 258.714 399.724 258.696 399.603 258.677H399.603C399.484 258.659 399.365 258.64 399.247 258.635C398.939 258.625 398.628 258.625 398.318 258.626C398.132 258.626 397.946 258.626 397.761 258.624C396.605 258.608 395.485 258.837 394.377 259.123C392.536 259.601 390.79 260.306 389.114 261.155C388.206 261.613 387.328 262.124 386.451 262.634C386.283 262.732 386.115 262.83 385.946 262.927C384.785 263.595 383.633 264.275 382.487 264.97C381.888 265.331 381.306 265.718 380.725 266.104L380.524 266.238C380.392 266.328 380.275 266.45 380.18 266.572C380.068 266.718 379.965 266.868 379.861 267.017C379.758 267.167 379.654 267.317 379.543 267.463C379.41 267.638 379.256 267.808 379.081 267.941C378.678 268.243 378.238 268.19 377.792 267.776C377.892 267.649 377.991 267.52 378.091 267.392C378.357 267.048 378.624 266.702 378.906 266.37C379.293 265.909 379.686 265.452 380.079 264.995L380.079 264.995C380.549 264.448 381.02 263.901 381.479 263.346C382.127 262.564 382.766 261.775 383.406 260.984C383.92 260.35 384.434 259.714 384.954 259.081C385.254 258.718 385.562 258.36 385.869 258.003L385.869 258.003L385.87 258.002C386.102 257.733 386.334 257.463 386.562 257.192C387.037 256.621 387.501 256.046 387.967 255.47L387.967 255.47C388.089 255.319 388.211 255.168 388.334 255.017C388.495 254.819 388.656 254.622 388.817 254.424L388.817 254.424C389.27 253.868 389.722 253.314 390.18 252.762C390.616 252.233 391.055 251.71 391.495 251.186L391.496 251.186C391.634 251.022 391.772 250.857 391.91 250.693C392.111 250.454 392.318 250.219 392.525 249.985L392.525 249.984C392.732 249.75 392.939 249.515 393.14 249.276C393.507 248.841 393.871 248.405 394.236 247.968C394.601 247.532 394.966 247.096 395.332 246.661C395.767 246.149 396.205 245.644 396.643 245.138L396.649 245.131C396.786 244.973 396.924 244.814 397.061 244.655C397.247 244.44 397.433 244.223 397.618 244.006C398.127 243.413 398.636 242.819 399.157 242.236C399.51 241.839 399.874 241.45 400.238 241.061L400.238 241.061L400.238 241.06C400.492 240.788 400.747 240.516 400.998 240.241C401.243 239.972 401.483 239.697 401.723 239.422L401.723 239.422C402.064 239.031 402.406 238.639 402.764 238.262C403.146 237.862 403.551 237.485 403.956 237.107C404.136 236.939 404.316 236.772 404.494 236.602C404.529 236.55 404.567 236.544 404.66 236.529C404.681 236.526 404.705 236.522 404.733 236.517C404.704 236.581 404.681 236.639 404.66 236.692ZM390.289 254.231C390.077 254.347 389.895 254.488 389.855 254.739C390.06 254.614 390.255 254.485 390.289 254.231ZM390.324 254.191L390.32 254.193L390.322 254.189C390.328 254.176 390.33 254.171 390.324 254.191ZM390.451 253.94L390.477 253.961L390.483 253.924L390.451 253.94ZM430.658 267.773C430.922 267.681 431.192 267.588 431.472 267.494C431.408 267.459 431.357 267.429 431.315 267.403C431.249 267.364 431.202 267.336 431.154 267.319C429.901 266.916 428.607 266.699 427.291 266.656C426.538 266.635 425.785 266.619 425.026 266.731C424.774 266.768 424.52 266.798 424.266 266.828C423.942 266.867 423.618 266.905 423.296 266.959C421.79 267.208 420.357 267.675 418.962 268.253C417.243 268.969 415.641 269.882 414.081 270.863C413.523 271.214 412.984 271.597 412.447 271.98C412.244 272.125 412.041 272.27 411.837 272.413C411.569 272.601 411.302 272.79 411.034 272.978C410.044 273.677 409.053 274.376 408.059 275.065C406.791 275.946 405.502 276.795 404.033 277.336C402.993 277.718 401.942 277.994 400.796 277.797C400.059 277.67 399.374 277.469 398.754 277.076C398.011 276.609 397.332 276.084 396.764 275.41C396.175 274.71 395.586 274.009 395.114 273.224C394.957 272.963 394.809 272.696 394.661 272.428C394.431 272.01 394.2 271.592 393.931 271.198C393.686 270.836 393.448 270.47 393.21 270.104C392.603 269.171 391.997 268.239 391.273 267.378C390.859 266.89 390.392 266.465 389.867 266.131C388.981 265.563 387.979 265.309 386.902 265.457C386.265 265.542 385.655 265.728 385.124 266.094C384.529 266.501 384.072 267.038 383.616 267.575C383.585 267.612 383.553 267.649 383.522 267.685C383.484 267.73 383.445 267.775 383.407 267.82C382.93 268.376 382.45 268.936 381.92 269.442C381.32 270.015 380.583 270.375 379.697 270.349C379.219 270.333 378.779 270.184 378.344 270.004C377.694 269.73 377.148 269.318 376.602 268.905C376.439 268.782 376.276 268.659 376.11 268.54C375.309 267.961 374.508 267.394 373.58 267.017C373.187 266.858 372.768 266.704 372.349 266.662C371.426 266.566 370.503 266.64 369.611 266.922C367.786 267.494 366.216 268.471 364.794 269.675C364.237 270.147 363.717 270.656 363.213 271.176C362.465 271.94 361.786 272.757 361.324 273.723C361.112 274.158 360.953 274.588 361.043 275.108L361.287 275.352C361.627 275.272 361.887 275.102 362.104 274.869C362.289 274.671 362.472 274.471 362.656 274.271C363.059 273.832 363.463 273.392 363.882 272.97C363.959 272.891 364.037 272.813 364.115 272.734C364.831 272.009 365.549 271.282 366.439 270.741C366.895 270.465 367.388 270.211 367.903 270.062C368.688 269.834 369.5 269.908 370.312 270.03C371.596 270.227 372.662 270.779 373.537 271.675C374.132 272.285 374.71 272.906 375.251 273.559C376.084 274.561 377.092 275.304 378.392 275.659L378.425 275.668C378.976 275.814 379.533 275.961 380.105 275.925C380.928 275.872 381.681 275.606 382.371 275.171C382.933 274.821 383.421 274.397 383.878 273.935C384.1 273.712 384.321 273.487 384.541 273.262C384.982 272.812 385.423 272.361 385.883 271.93C386.467 271.383 387.167 271.044 388.116 271.166C388.21 271.219 388.313 271.276 388.421 271.335C388.625 271.447 388.848 271.57 389.066 271.702C389.209 271.787 389.337 271.903 389.443 272.031C389.777 272.423 390.111 272.816 390.408 273.23C390.778 273.75 391.143 274.274 391.507 274.798C391.975 275.47 392.443 276.143 392.923 276.811C393.735 277.935 394.7 278.933 395.846 279.75C396.711 280.371 397.698 280.753 398.764 280.975C399.24 281.077 399.71 281.075 400.18 281.073C400.35 281.073 400.52 281.072 400.69 281.076C401.396 281.092 402.07 280.928 402.738 280.753C404.59 280.264 406.271 279.426 407.858 278.413C408.713 277.867 409.54 277.275 410.365 276.684C410.656 276.476 410.946 276.268 411.237 276.063C411.617 275.792 411.994 275.516 412.37 275.24C413.07 274.726 413.77 274.213 414.495 273.734C416.07 272.688 417.694 271.712 419.476 270.996C420.691 270.508 421.943 270.152 423.211 269.829C423.543 269.745 423.873 269.661 424.204 269.578C425.086 269.355 425.966 269.133 426.846 268.906L426.846 268.906C427.605 268.709 428.363 268.513 429.111 268.285C429.624 268.129 430.129 267.955 430.658 267.773Z" fill="white"/>
<path d="M329.921 314.822C328.293 315.459 328.293 315.459 327.64 314.501C328.347 313.264 329.074 311.983 329.849 310.621C332.295 310.264 334.456 310.757 336.252 312.473C338.123 314.261 338.887 316.555 339.473 318.903C340.024 321.113 340.368 323.37 340.102 325.636C339.889 327.452 339.575 329.279 339.048 331.029C338.396 333.199 336.803 334.771 334.621 335.972C335.073 336.309 335.447 336.589 335.824 336.864C337.992 338.442 338.45 340.821 337.016 343.011C336.423 343.917 335.636 344.639 334.642 345.115C330.442 347.123 326.317 347.104 322.342 344.571C321.411 343.979 320.794 343.138 320.396 342.13C319.743 340.487 320.159 339.073 321.357 337.827C321.824 337.343 322.39 336.943 322.988 336.439C322.342 335.929 321.671 335.459 321.075 334.918C318.684 332.737 318.079 329.99 318.474 327.004C318.794 324.574 319.321 322.169 319.645 319.742C319.767 318.827 319.618 317.867 319.498 316.937C319.447 316.538 319.184 316.15 318.977 315.779C318.591 315.082 317.941 314.776 317.13 314.796C316.28 314.816 315.717 315.317 315.418 315.983C315.172 316.53 315.044 317.164 315.044 317.762C315.041 322.481 315.077 327.197 315.115 331.916C315.121 332.479 315.214 333.043 315.256 333.607C315.316 334.4 315.588 335.077 316.355 335.505C316.816 335.762 317.139 336.125 317.001 336.663C316.84 337.289 316.28 337.399 315.711 337.405C313.02 337.433 310.326 337.465 307.635 337.453C306.596 337.45 306.461 337.258 306.407 336.068C308.021 335.34 308.162 333.921 308.144 332.4C308.09 328.389 308.087 324.378 308.039 320.368C308.027 319.331 307.973 318.291 307.85 317.263C307.596 315.153 305.749 314.306 303.839 315.394C302.911 315.923 302.229 316.66 301.935 317.665C300.983 320.931 300.744 324.259 301.085 327.616C301.208 328.823 301.558 330.015 301.899 331.191C302.157 332.077 302.713 332.802 303.791 333.21C304.267 333.066 304.824 332.896 305.378 332.726C306.171 333.043 306.114 333.561 305.743 334.105C304.989 335.213 304.204 336.298 303.465 337.348C299.421 338.246 296.825 336.258 295.338 333.298C294.451 331.533 293.991 329.638 293.82 327.707C293.535 324.492 293.667 321.294 294.631 318.17C295.508 315.334 297.164 313.037 300.04 311.728C303.911 309.967 307.575 310.51 311.014 312.825C311.095 312.878 311.176 312.935 311.143 312.912C312.721 312.207 314.169 311.292 315.762 310.907C319.187 310.083 322.411 310.661 325.042 313.065C326.949 314.81 327.413 317.085 327.137 319.453C326.877 321.696 326.335 323.908 325.979 326.14C325.733 327.681 325.626 329.236 326.152 330.76C326.634 332.151 327.913 333.196 329.128 333.205C330.286 333.213 331.654 332.148 332.142 330.797C332.352 330.219 332.546 329.619 332.606 329.018C332.995 325.101 332.84 321.209 331.729 317.396C331.439 316.428 331.142 315.368 329.921 314.822ZM330.388 338.921C330.364 338.858 330.337 338.796 330.31 338.736C329.819 337.671 328.775 337.459 327.948 338.32C326.976 339.334 327.035 341.45 328.071 342.413C328.739 343.033 329.873 342.793 330.268 341.991C330.304 341.917 330.34 341.838 330.37 341.762C330.738 340.852 330.744 339.833 330.388 338.921Z" fill="white"/>
<path d="M354.252 310.281C354.725 311.796 355.857 313.074 355.728 314.958C355.117 314.858 354.638 314.836 354.201 314.697C352.977 314.306 352.001 314.541 351.115 315.47C349.609 317.045 348.912 318.94 348.618 320.971C348.077 324.71 348.445 328.389 349.645 331.995C351.286 336.926 354.881 339.779 360.158 340.756C363.981 341.464 367.801 341.289 371.542 340.223C373.036 339.799 374.422 339.144 375.419 337.943C375.712 337.592 375.937 337.19 376.305 336.649H363.574C362.828 335.575 361.957 334.51 361.335 333.173C361.847 332.907 362.266 332.689 362.721 332.451C363.589 331.04 363.682 329.409 363.726 327.828C363.774 326.095 363.529 324.353 363.4 322.617C363.382 322.384 363.301 322.155 363.236 321.928C362.885 320.767 362.065 320.022 361.128 320.005C360.164 319.988 359.039 320.79 358.763 321.872C358.485 322.965 358.284 324.092 358.206 325.214C358.078 327.047 358.054 328.882 358.476 330.703C358.766 331.955 359.263 332.947 360.757 333.063C360.781 334.122 360.781 334.122 358.003 336.813C356.033 336.697 354.471 335.816 353.258 334.321C351.324 331.933 351.01 329.137 351.076 326.273C351.1 325.2 351.292 324.115 351.519 323.058C352.375 319.093 355.111 316.804 359.149 316.023C363.143 315.249 366.648 316.28 369.172 319.518C369.71 320.212 370.106 320.994 370.348 321.826C371.013 324.112 371.234 326.432 370.8 328.811C370.486 330.531 369.803 332.049 368.519 333.465H376.284C376.284 332.326 376.296 331.301 376.281 330.279C376.206 325.276 376.125 320.277 376.048 315.275C376.042 314.898 376.054 314.518 376.039 314.142C376.003 313.136 375.778 312.233 374.748 311.737C374.455 311.595 374.266 311.312 374.263 311.001C374.263 310.95 374.263 310.896 374.26 310.842C374.254 310.358 374.659 309.958 375.17 309.95C376.988 309.916 380.996 309.839 382.927 309.797C383.226 309.791 383.525 309.814 383.825 309.814C384.381 309.814 384.8 310.018 384.965 310.544C385.121 311.035 384.857 311.4 384.432 311.601C383.277 312.145 383.223 313.136 383.226 314.142C383.238 317.209 383.274 320.277 383.295 323.345C383.316 326.228 383.325 329.114 383.349 331.998C383.355 332.726 383.394 333.918 383.468 334.643C383.711 336.935 382.627 338.697 380.861 340.093C379.804 340.929 378.58 341.626 377.332 342.189C373.027 344.13 368.48 344.903 363.696 344.696C360.751 344.569 357.808 344.481 354.956 343.736C350.669 342.62 346.903 340.691 344.407 337.045C342.982 334.964 342.135 332.658 341.763 330.196C341.105 325.84 341.207 321.54 342.853 317.365C343.521 315.671 344.463 314.125 345.885 312.878C348.226 310.825 351.034 310.151 354.252 310.281Z" fill="white"/>
<path d="M466.031 335.318C465.457 334.547 464.804 333.729 464.217 332.87C463.858 332.349 464.035 331.882 464.591 331.556C466.471 331.709 467.357 331.196 467.845 329.5C469.052 325.31 469.106 321.121 467.594 316.983C467.154 315.779 466.516 314.643 465.466 313.785C463.99 312.578 462.442 312.153 460.374 312.371C461.083 313.309 461.879 314.21 462.502 315.212C463.708 317.156 464.202 319.311 464.436 321.54C464.714 324.189 464.544 326.795 463.828 329.375C461.87 336.439 453.689 337.612 449.019 333.848C447.876 332.927 447.098 331.689 446.574 330.344C445.065 326.466 444.945 322.526 446.032 318.541C446.652 316.272 447.78 314.272 449.852 312.49C449.148 312.49 448.726 312.456 448.316 312.496C445.736 312.751 443.886 313.972 442.754 316.207C442.036 317.629 441.533 319.11 441.377 320.662C441.075 323.684 441.132 326.695 442.227 329.607C442.377 330.004 442.563 330.392 442.763 330.769C443.188 331.565 443.847 331.964 444.823 331.831C445.155 331.785 445.499 331.822 445.757 331.822C446.34 332.437 446.215 332.935 445.798 333.437C445.215 334.136 444.643 334.845 444.065 335.553C440.665 335.833 437.019 333.867 435.45 329.981C433.588 325.361 433.519 320.668 435.465 316.037C437.126 312.077 440.377 309.836 444.658 308.921C447.714 308.27 450.804 308.448 453.851 309.106C454.602 309.267 455.288 309.244 456.039 309.072C459.67 308.239 463.325 307.941 466.944 309.125C470.531 310.295 473.117 312.505 474.437 315.909C476.083 320.152 476.254 324.461 474.856 328.794C474.156 330.97 472.925 332.802 470.857 334.085C469.426 334.969 467.884 335.346 466.031 335.318ZM454.941 315.082C453.77 316.445 452.974 318.24 452.707 319.756C452.21 322.583 452.498 325.398 452.8 328.208C452.884 328.973 453.255 329.757 453.671 330.437C454.489 331.774 455.94 331.686 456.656 330.27C456.949 329.687 457.087 329.024 457.245 328.386C457.347 327.976 457.374 327.548 457.41 327.126C457.668 324.203 457.784 321.285 456.877 318.43C456.488 317.218 456.117 315.983 454.941 315.082Z" fill="white"/>
<path d="M395.822 335.374C395.442 336.227 394.787 336.329 394.23 336.34C391.389 336.385 388.548 336.363 385.708 336.351C385.573 336.351 385.438 336.249 385.318 336.198C384.911 335.063 384.911 335.063 386.528 334.037C386.618 333.403 386.824 332.627 386.827 331.845C386.845 328.449 386.809 325.053 386.779 321.656C386.77 320.574 386.65 319.492 386.686 318.413C386.836 314.028 389.467 310.933 393.946 309.882C397.328 309.089 400.729 308.972 404.132 309.72C406.168 310.168 407.997 310.989 409.206 312.711C410.49 314.544 410.646 316.515 409.769 318.507C409.072 320.093 407.431 320.892 405.47 320.648C404.59 320.538 404.016 320.826 403.549 321.427C403.15 321.94 403.228 322.883 403.662 323.424C404.159 324.047 404.83 324.279 405.638 324.141C405.785 324.115 405.925 324.067 406.072 324.036C408.371 323.571 409.718 324.274 410.401 326.418C411.191 328.905 411.185 331.332 409.583 333.601C408.467 335.182 406.871 335.946 404.938 336.046C403.049 336.145 401.148 336.119 399.253 336.114C398.124 336.111 397.78 335.859 397.43 334.805C397.086 333.774 396.804 332.726 396.502 331.715C397.175 330.797 397.355 330.709 398.1 331.324C399.007 332.072 400.016 332.233 401.154 332.134C403.198 331.955 403.845 329.338 402.887 328.168C402.522 327.724 402.046 327.542 401.465 327.514C400.774 327.48 400.076 327.443 399.391 327.344C398.31 327.188 397.583 326.565 397.211 325.616C396.463 323.696 396.349 321.716 397.104 319.804C397.58 318.597 398.609 317.83 400.097 317.861C400.546 317.869 400.992 317.901 401.441 317.901C402.669 317.906 403.351 317.187 403.246 316.011C403.088 314.213 401.947 313.105 399.986 312.918C399.397 312.861 398.786 312.898 398.196 312.963C395.37 313.286 393.937 315.062 393.811 317.665C393.7 319.92 393.847 322.189 393.88 324.449C393.91 326.565 393.937 328.681 393.972 330.797C393.984 331.457 393.981 332.117 394.041 332.774C394.098 333.397 394.332 333.935 394.909 334.343C395.278 334.609 395.526 335.031 395.822 335.374Z" fill="white"/>
<path d="M412.813 325.786C414.918 325.415 416.867 325.07 418.815 324.727C419.306 324.642 419.791 324.54 420.285 324.475C420.749 324.412 421.186 324.444 421.441 324.911C421.689 325.373 421.482 325.783 421.165 326.069C419.51 327.576 420.04 329.338 420.477 331.08C420.552 331.383 420.797 331.669 421.027 331.91C421.893 332.811 422.964 332.763 423.641 331.734C424.03 331.142 424.347 330.468 424.506 329.791C425.658 324.928 425.658 320.076 424.198 315.261C424.021 314.68 423.746 314.102 423.392 313.601C422.767 312.709 421.917 312.604 421.135 313.354C420.698 313.774 420.252 314.346 420.171 314.895C420.016 315.955 420.046 317.054 420.153 318.124C420.195 318.526 420.662 318.892 420.935 319.277C421.15 319.58 421.366 319.886 421.599 320.217C421.372 320.54 421.186 320.801 420.938 321.152C418.285 320.739 415.645 320.328 413.038 319.92C412.074 313.451 416.831 307.457 424.653 309.242C427.877 309.978 430.005 311.952 431.08 314.836C432.885 319.679 433.037 324.619 431.565 329.573C430.987 331.516 429.957 333.224 428.26 334.507C423.689 337.96 414.906 337.264 413.218 329.219C412.984 328.123 412.948 326.99 412.813 325.786Z" fill="white"/>
<path d="M477.712 325.458C477.502 322.75 478.224 320.291 479.972 318.161C481.837 315.889 484.277 314.615 487.399 314.535C489.599 314.479 491.655 314.788 493.535 315.929C496.544 317.756 497.945 320.481 498.247 323.73C498.409 325.458 498.28 327.194 497.75 328.908C496.673 332.4 493.505 335.105 489.117 335.459C483.31 335.927 479.343 332.729 478.044 327.97C477.826 327.16 477.82 326.296 477.712 325.458ZM485.016 324.75C485.016 325.409 484.959 326.072 485.028 326.727C485.178 328.146 485.597 329.497 486.414 330.709C487.306 332.032 488.988 332.057 489.797 330.698C490.228 329.973 490.578 329.143 490.692 328.327C490.901 326.843 491.036 325.324 490.967 323.832C490.895 322.291 490.629 320.744 489.716 319.379C489.27 318.708 488.68 318.425 487.857 318.436C486.986 318.447 486.504 318.915 486.121 319.572C485.175 321.183 484.911 322.937 485.016 324.75Z" fill="white"/>
</svg>
