<?xml version="1.0" encoding="UTF-8" standalone="no"?>
<svg
   width="625.99799"
   height="150.94"
   viewBox="0 0 625.99799 150.94"
   version="1.1"
   id="svg7"
   sodipodi:docname="ggn logo green.svg"
   inkscape:version="1.2 (dc2aedaf03, 2022-05-15)"
   xmlns:inkscape="http://www.inkscape.org/namespaces/inkscape"
   xmlns:sodipodi="http://sodipodi.sourceforge.net/DTD/sodipodi-0.dtd"
   xmlns="http://www.w3.org/2000/svg"
   xmlns:svg="http://www.w3.org/2000/svg">
  <defs
     id="defs11" />
  <sodipodi:namedview
     id="namedview9"
     pagecolor="#ffffff"
     bordercolor="#000000"
     borderopacity="0.25"
     inkscape:showpageshadow="2"
     inkscape:pageopacity="0.0"
     inkscape:pagecheckerboard="0"
     inkscape:deskcolor="#d1d1d1"
     showgrid="false"
     inkscape:zoom="1.9267516"
     inkscape:cx="314"
     inkscape:cy="76.813223"
     inkscape:window-width="1920"
     inkscape:window-height="1057"
     inkscape:window-x="-8"
     inkscape:window-y="-8"
     inkscape:window-maximized="1"
     inkscape:current-layer="svg7" />
  <g
     id="Group_615"
     data-name="Group 615"
     transform="translate(-300,-481)">
    <path
       id="Path_8"
       data-name="Path 8"
       d="m -146.768,-520.959 v -0.323 c 0,-32.813 25.736,-58.549 60.641,-58.549 18.427,0 31.83,5.3 43.2,14.347 a 3.169,3.169 0 0 1 0.451,4.5 l -14.317,17.2 a 3.178,3.178 0 0 1 -4.379,0.471 c -7.274,-5.564 -14.793,-8.7 -24.794,-8.7 -16.245,0 -28.792,13.672 -28.792,30.883 v 0.322 c 0,18.175 12.707,31.2 30.562,31.2 6.709,0 12.024,-1.266 16.4,-3.686 a 3.168,3.168 0 0 0 1.619,-2.772 v -8.709 a 3.168,3.168 0 0 0 -3.168,-3.169 h -15.866 a 3.168,3.168 0 0 1 -3.168,-3.169 v -16.5 a 3.169,3.169 0 0 1 3.168,-3.169 h 45.458 a 3.17,3.17 0 0 1 3.169,3.169 v 45.981 a 3.149,3.149 0 0 1 -1.181,2.472 76.145,76.145 0 0 1 -47.718,16.419 c -35.066,0.01 -61.285,-24.119 -61.285,-58.218 z m 118.887,28.244 v -0.2 c 0,-15.252 12.479,-28.029 29.713,-28.029 17.135,0 29.515,12.579 29.515,27.831 v 0.2 c 0,15.254 -12.48,28.029 -29.714,28.029 -17.133,-10e-4 -29.514,-12.579 -29.514,-27.832 z m 40.9,0 v -0.2 C 13.024,-499.45 8.27,-505 1.634,-505 c -6.833,0 -11.192,5.45 -11.192,11.886 v 0.2 c 0,6.538 4.755,12.084 11.39,12.084 6.834,0 11.192,-5.448 11.192,-11.886 z m 24.07,0 v -0.2 c 0,-15.252 12.479,-28.029 29.713,-28.029 17.135,0 29.515,12.579 29.515,27.831 v 0.2 c 0,15.254 -12.48,28.029 -29.714,28.029 -17.129,-10e-4 -29.509,-12.579 -29.509,-27.832 z m 40.905,0 v -0.2 C 78,-499.45 73.244,-505 66.608,-505 c -6.833,0 -11.192,5.45 -11.192,11.886 v 0.2 c 0,6.538 4.755,12.084 11.39,12.084 6.835,0 11.194,-5.448 11.194,-11.886 z m 24.267,0 v -0.2 c 0,-17.432 10.894,-28.029 23.572,-28.029 a 19.93,19.93 0 0 1 14.657,5.846 1.053,1.053 0 0 0 1.786,-0.758 v -21.563 a 1.056,1.056 0 0 1 1.055,-1.057 h 16.707 a 1.057,1.057 0 0 1 1.057,1.057 v 70.19 a 1.057,1.057 0 0 1 -1.057,1.057 h -16.703 a 1.056,1.056 0 0 1 -1.055,-1.057 v -3.3 a 1.053,1.053 0 0 0 -1.814,-0.732 19.012,19.012 0 0 1 -14.529,6.272 c -12.677,0.005 -23.671,-10.593 -23.671,-27.727 z m 40.31,-0.2 v -0.2 c 0,-7.03 -4.853,-12.083 -10.895,-12.083 -6.042,0 -10.993,4.951 -10.993,12.083 v 0.2 c 0,7.132 4.953,12.182 10.993,12.182 6.04,0 10.9,-5.049 10.9,-12.181 z m 32.7,-54.857 h 17.879 a 2.108,2.108 0 0 1 1.666,0.815 l 29.028,37.291 a 2.112,2.112 0 0 0 3.778,-1.3 v -34.7 a 2.111,2.111 0 0 1 2.111,-2.11 H 247.8 a 2.111,2.111 0 0 1 2.111,2.11 v 77.066 a 2.11,2.11 0 0 1 -2.111,2.111 h -16.6 a 2.111,2.111 0 0 1 -1.667,-0.815 l -30.3,-38.919 a 2.111,2.111 0 0 0 -3.778,1.3 v 36.323 a 2.111,2.111 0 0 1 -2.112,2.111 h -18.065 a 2.111,2.111 0 0 1 -2.113,-2.111 v -77.06 a 2.111,2.111 0 0 1 2.113,-2.111 z m 85.2,50.16 v -0.233 c 0,-18.346 13.121,-32.859 31.7,-32.859 21.714,0 31.7,15.907 31.7,34.37 0,0.766 0,1.6 -0.019,2.453 a 2.117,2.117 0 0 1 -2.114,2.073 h -37.022 a 2.124,2.124 0 0 0 -1.893,3.062 c 2.312,4.826 6.748,7.273 12.49,7.273 4.712,0 8.574,-1.606 12.608,-5.157 a 2.115,2.115 0 0 1 2.748,-0.051 l 9.132,7.567 a 2.118,2.118 0 0 1 0.237,3.032 c -5.962,6.723 -14.284,11.1 -25.885,11.1 -19.74,-0.002 -33.674,-13.118 -33.674,-32.629 z m 40.184,-5.457 a 2.115,2.115 0 0 0 2.052,-2.639 c -1.435,-5.423 -5.186,-8.739 -10.421,-8.739 -5,0 -8.621,3.356 -10.272,8.663 a 2.111,2.111 0 0 0 2.029,2.715 z m 28.045,-26.24 h 17.118 a 2.113,2.113 0 0 1 2.044,1.58 l 5.938,22.751 a 2.112,2.112 0 0 0 4.066,0.079 l 7.011,-23.143 a 2.111,2.111 0 0 1 2.021,-1.5 h 15.1 a 2.113,2.113 0 0 1 2.021,1.5 l 7.142,23.466 a 2.112,2.112 0 0 0 4.062,-0.069 l 6.152,-23.093 a 2.113,2.113 0 0 1 2.042,-1.569 h 16.769 a 2.112,2.112 0 0 1 2.019,2.731 l -18.1,59.056 a 2.113,2.113 0 0 1 -2.019,1.494 h -15.931 a 2.112,2.112 0 0 1 -2.016,-1.481 l -7.761,-24.782 a 2.112,2.112 0 0 0 -4.027,-0.012 L 364.4,-467.5 a 2.112,2.112 0 0 1 -2.012,1.468 h -15.812 a 2.111,2.111 0 0 1 -2.022,-1.5 l -17.879,-59.057 a 2.112,2.112 0 0 1 2.025,-2.72 z m 96.2,53.209 6.069,-9.828 a 2.1,2.1 0 0 1 2.872,-0.7 c 6.709,4.031 13.865,6.094 19.843,6.094 3.831,0 5.572,-1.162 5.572,-3.367 v -0.233 c 0,-2.437 -3.482,-3.484 -10.1,-5.341 -12.424,-3.252 -22.294,-7.431 -22.294,-20.088 v -0.233 c 0,-13.352 10.682,-20.783 25.2,-20.783 a 49.766,49.766 0 0 1 24.127,6.241 2.117,2.117 0 0 1 0.807,2.846 l -5.596,10.317 a 2.1,2.1 0 0 1 -2.8,0.879 c -5.98,-3.028 -12.238,-4.848 -16.772,-4.848 -3.367,0 -5.109,1.279 -5.109,3.018 v 0.234 c 0,2.437 3.6,3.6 10.217,5.572 12.425,3.484 22.294,7.78 22.294,19.972 v 0.231 c 0,13.819 -10.334,21.018 -25.661,21.018 a 50.954,50.954 0 0 1 -28.006,-8.11 2.126,2.126 0 0 1 -0.663,-2.891 z M -26.829,-577.5 h 12.469 a 1.056,1.056 0 0 1 1.056,1.057 v 3.091 a 1.053,1.053 0 0 0 1.917,0.6 11.727,11.727 0 0 1 10.118,-5.457 1.066,1.066 0 0 1 1.089,1.059 v 14.3 H -1.4 c -7.6,0 -11.895,4.374 -11.895,13.967 v 11.838 a 1.056,1.056 0 0 1 -1.056,1.056 h -12.474 a 1.056,1.056 0 0 1 -1.056,-1.056 v -39.406 a 1.055,1.055 0 0 1 1.056,-1.054 z m 29.34,20.945 v -0.153 c 0,-12.126 8.672,-21.719 20.951,-21.719 14.352,0 20.952,10.513 20.952,22.717 0,0.612 0,1.29 -0.023,1.969 a 1.059,1.059 0 0 1 -1.057,1.025 H 18.012 a 1.057,1.057 0 0 0 -0.993,1.432 c 1.439,3.581 4.492,5.4 8.515,5.4 a 12.073,12.073 0 0 0 8.53,-3.584 1.064,1.064 0 0 1 1.4,-0.044 l 6.532,5.411 a 1.05,1.05 0 0 1 0.142,1.486 c -3.957,4.61 -9.53,7.628 -17.367,7.628 -13.05,-0.003 -22.26,-8.674 -22.26,-21.568 z m 26.989,-3.607 a 1.062,1.062 0 0 0 1.037,-1.285 c -0.853,-3.855 -3.394,-6.234 -7,-6.234 -3.448,0 -5.9,2.416 -6.925,6.192 a 1.061,1.061 0 0 0 1.026,1.327 z m 19.443,3.607 v -0.153 c 0,-12.126 8.672,-21.719 20.951,-21.719 14.352,0 20.952,10.513 20.952,22.717 0,0.612 0,1.29 -0.024,1.969 a 1.059,1.059 0 0 1 -1.057,1.025 H 64.444 a 1.057,1.057 0 0 0 -0.993,1.432 c 1.439,3.581 4.492,5.4 8.515,5.4 a 12.073,12.073 0 0 0 8.53,-3.584 1.064,1.064 0 0 1 1.4,-0.044 l 6.532,5.411 a 1.05,1.05 0 0 1 0.142,1.486 c -3.957,4.61 -9.53,7.628 -17.366,7.628 -13.051,-0.003 -22.261,-8.674 -22.261,-21.568 z m 26.989,-3.607 a 1.063,1.063 0 0 0 1.038,-1.285 c -0.853,-3.855 -3.394,-6.234 -7,-6.234 -3.448,0 -5.905,2.416 -6.925,6.192 a 1.061,1.061 0 0 0 1.026,1.327 z m 22.188,-17.343 h 12.469 a 1.056,1.056 0 0 1 1.056,1.057 v 1.956 a 1.057,1.057 0 0 0 1.821,0.728 14.422,14.422 0 0 1 10.612,-4.663 c 8.825,0 14.121,5.834 14.121,15.272 v 26.112 a 1.056,1.056 0 0 1 -1.056,1.056 h -12.47 a 1.056,1.056 0 0 1 -1.056,-1.056 v -21.431 c 0,-4.527 -2.379,-6.985 -5.832,-6.985 -3.53,0 -6.14,2.458 -6.14,6.985 v 21.431 a 1.056,1.056 0 0 1 -1.056,1.056 H 98.12 a 1.056,1.056 0 0 1 -1.057,-1.056 v -39.406 a 1.056,1.056 0 0 1 1.057,-1.056 z"
       transform="translate(446.768,1060.831)"
       fill="#00d532" />
    <text
       id="See_goodness_in_everything_everywhere"
       data-name="See goodness in everything &amp; everywhere"
       transform="translate(697,626)"
       fill="#00d532"
       stroke="rgba(202,206,213,0.05)"
       stroke-width="1"
       font-size="22px"
       font-family="Poppins-Regular, Poppins"><tspan
         x="-229.196"
         y="0"
         id="tspan3">See goodness in everything &amp; everywhere</tspan></text>
  </g>
</svg>
