<?xml version="1.0" encoding="utf-8"?>
<!-- Generator: Adobe Illustrator 24.3.0, SVG Export Plug-In . SVG Version: 6.00 Build 0)  -->
<svg version="1.1" id="Layer_1" xmlns="http://www.w3.org/2000/svg" xmlns:xlink="http://www.w3.org/1999/xlink" x="0px" y="0px"
	 viewBox="0 0 320.17 320.17" style="enable-background:new 0 0 320.17 320.17;" xml:space="preserve">
<style type="text/css">
	.st0{fill:url(#SVGID_1_);}
	.st1{fill:#FFFFFF;}
</style>
<g>
	<linearGradient id="SVGID_1_" gradientUnits="userSpaceOnUse" x1="88.3172" y1="25.5202" x2="258.5238" y2="344.6576">
		<stop  offset="0" style="stop-color:#69B42E"/>
		<stop  offset="1" style="stop-color:#006230"/>
	</linearGradient>
	<circle class="st0" cx="160.09" cy="160.09" r="155.12"/>
	<g>
		<path class="st1" d="M149.63,153.57c-1.42,0-2.58-1.15-2.58-2.58v-22.42c0-13.55-0.63-14.56-4.05-18.99
			c-3.57-4.14-7.24-5.78-14.53-6.52c-1.31-0.13-2.31-1.24-2.31-2.56l0-0.53c0-1.52,1.15-2.67,2.58-2.67h25.5
			c0.66,0,1.3,0.29,1.74,0.78l75.88,85.46c1.59,1.79,4.54,0.64,4.51-1.75l-0.99-67.25c-0.1-6.47-5.37-11.41-11.84-11.41h-4.62
			c-1.42,0-2.58-1.15-2.58-2.58v-0.67c0-1.42,1.15-2.58,2.58-2.58h40.06c1.42,0,2.58,1.15,2.58,2.58v0.67
			c0,1.42-1.15,2.58-2.58,2.58h-1.8c-6.4,0-11.58,5.18-11.59,11.58l-0.1,102.61c0,1.28-1.04,2.31-2.31,2.31h-3.61
			c-0.75,0-1.46-0.33-1.95-0.89l-77.99-90.46c-1.55-1.8-4.5-0.72-4.53,1.65L154.79,151c-0.01,1.42-1.16,2.57-2.58,2.57H149.63z"/>
		<path class="st1" d="M100.95,164.04v3.77c0,1.28,1.04,2.31,2.31,2.31h36.61c1.28,0,2.31,1.04,2.31,2.31v28.58
			c0,7.09-2.28,9.75-6.33,11.9c-4.05,2.03-10.13,3.29-16.34,3.29c-37.11,0-53.32-31.15-53.32-57.88c0-32.58,19.99-53.04,47.39-54.49
			c1.37-0.07,2.43-1.2,2.43-2.57V99.7c0-1.49-1.27-2.67-2.76-2.58c-36,2.23-68.09,23.44-68.09,63.63
			c0,36.85,28.87,62.31,71.93,62.31c14.79,0,29.92-3.87,41.65-6.65c1.33-0.32,2.16-1.61,1.93-2.96c-0.7-4.25-0.79-9.3-0.79-14.7
			v-26.3c0-1.28,1.04-2.31,2.31-2.31h7.28c1.28,0,2.31-1.04,2.31-2.31v-3.77l0,0c0-1.28-1.04-2.31-2.31-2.31h-66.24
			C101.99,161.73,100.95,162.76,100.95,164.04z"/>
		<path class="st1" d="M103.53,153.73h32.94c1.42,0,2.58-1.15,2.58-2.58v-3.25c0-1.42-1.15-2.58-2.58-2.58h-32.94
			c-1.42,0-2.58,1.15-2.58,2.58v3.25C100.95,152.57,102.1,153.73,103.53,153.73z"/>
	</g>
</g>
</svg>
