<svg width="15" height="14" viewBox="0 0 15 14" fill="none" xmlns="http://www.w3.org/2000/svg">
<path d="M6.23333 1.45901L1.96667 4.79455C1.63333 4.99469 1.5 5.39495 1.5 5.79522V11.6658C1.5 12.3996 2.1 13 2.83333 13H5.16667C5.56667 13 5.83333 12.7332 5.83333 12.3329V7.66357C5.83333 7.2633 6.1 6.99646 6.5 6.99646H8.5C8.9 6.99646 9.16667 7.2633 9.16667 7.66357V12.3329C9.16667 12.7332 9.43333 13 9.83333 13H12.1667C12.9 13 13.5 12.3996 13.5 11.6658V5.79522C13.5 5.39495 13.3 4.99469 12.9667 4.72784L8.7 1.39229C7.96667 0.858607 6.96667 0.858607 6.23333 1.45901Z" stroke="#363636" stroke-width="1.5"/>
</svg>
