<?xml version="1.0" encoding="UTF-8" standalone="no"?>
<svg
   width="60.235298"
   height="60.235298"
   viewBox="0 0 60.235298 60.235298"
   fill="none"
   version="1.1"
   id="svg35"
   sodipodi:docname="suprabhatham logo blue.svg"
   inkscape:version="1.2.2 (732a01da63, 2022-12-09)"
   xmlns:inkscape="http://www.inkscape.org/namespaces/inkscape"
   xmlns:sodipodi="http://sodipodi.sourceforge.net/DTD/sodipodi-0.dtd"
   xmlns="http://www.w3.org/2000/svg"
   xmlns:svg="http://www.w3.org/2000/svg">
  <sodipodi:namedview
     id="namedview37"
     pagecolor="#ffffff"
     bordercolor="#cccccc"
     borderopacity="1"
     inkscape:showpageshadow="0"
     inkscape:pageopacity="1"
     inkscape:pagecheckerboard="0"
     inkscape:deskcolor="#d1d1d1"
     showgrid="false"
     inkscape:zoom="7.304687"
     inkscape:cx="8.4192519"
     inkscape:cy="15.743317"
     inkscape:window-width="1920"
     inkscape:window-height="1057"
     inkscape:window-x="-8"
     inkscape:window-y="-8"
     inkscape:window-maximized="1"
     inkscape:current-layer="svg35" />
  <g
     clip-path="url(#clip0_84_249)"
     id="g16">
    <path
       d="m 30.1177,60.2353 c 16.6335,0 30.1176,-13.4841 30.1176,-30.1176 C 60.2353,13.4841 46.7512,0 30.1177,0 13.4841,0 0,13.4841 0,30.1177 0,46.7512 13.4841,60.2353 30.1177,60.2353 Z"
       fill="#0055a6"
       id="path2" />
    <path
       d="m 53.8581,42.2684 c -0.561,0.1882 -1.0652,0.3728 -1.5801,0.5291 -0.5006,0.1526 -1.0084,0.284 -1.5161,0.4154 -0.8096,0.2095 -1.6192,0.4119 -2.4323,0.6178 -0.8487,0.2166 -1.6866,0.4545 -2.4998,0.7812 -1.193,0.4794 -2.2796,1.1327 -3.3341,1.8322 -0.7457,0.4936 -1.4523,1.0404 -2.1802,1.5588 -0.7492,0.5291 -1.4878,1.0794 -2.2619,1.573 -1.0616,0.6782 -2.1872,1.2392 -3.4265,1.5659 -0.4474,0.1172 -0.8983,0.2272 -1.3706,0.2166 -0.4296,-0.0107 -0.8557,0.0248 -1.2889,-0.0675 -0.7137,-0.1491 -1.3741,-0.4048 -1.9529,-0.8202 -0.767,-0.5468 -1.4132,-1.2144 -1.9565,-1.9671 -0.5717,-0.7954 -1.1185,-1.6014 -1.683,-2.3968 -0.1989,-0.277 -0.4226,-0.5397 -0.6463,-0.8025 -0.071,-0.0852 -0.1562,-0.1633 -0.2521,-0.2201 -0.2237,-0.135 -0.4545,-0.2557 -0.6356,-0.3587 -0.6356,-0.0816 -1.1043,0.1456 -1.4949,0.5113 -0.4616,0.4332 -0.8948,0.8948 -1.3421,1.3422 -0.3054,0.3089 -0.6321,0.593 -1.0085,0.8274 -0.4616,0.2911 -0.9658,0.4687 -1.5161,0.5042 -0.3906,0.0248 -0.7706,-0.0781 -1.1469,-0.1776 -0.87,-0.2379 -1.5446,-0.735 -2.1021,-1.4061 -0.3622,-0.4367 -0.7492,-0.8522 -1.1469,-1.2605 -0.5859,-0.6001 -1.2996,-0.9694 -2.1589,-1.1007 -0.5432,-0.0817 -1.0865,-0.1314 -1.612,0.0213 -0.3445,0.0994 -0.6747,0.2698 -0.98,0.4545 C 9.67232,44.8427 9.15391,45.3966 8.62129,45.9328 8.21295,46.3447 7.82592,46.7814 7.43178,47.204 7.2862,47.3602 7.11221,47.4738 6.88496,47.5271 6.82815,47.4703 6.76779,47.4099 6.72163,47.3638 6.66126,47.0158 6.76779,46.7282 6.90982,46.437 c 0.30891,-0.6462 0.76341,-1.1931 1.26407,-1.7044 0.33733,-0.3479 0.6853,-0.6888 1.05813,-1.0048 0.95158,-0.8061 2.00268,-1.4594 3.22408,-1.8429 0.5966,-0.1882 1.2144,-0.2379 1.8322,-0.174 0.2805,0.0284 0.561,0.1314 0.8238,0.2379 0.6214,0.2521 1.1576,0.6321 1.6937,1.0191 0.4829,0.348 0.9303,0.7421 1.4949,0.98 0.2912,0.1207 0.5859,0.2202 0.9054,0.2308 0.593,0.0178 1.0866,-0.2237 1.4878,-0.6072 0.3835,-0.3657 0.7279,-0.774 1.0723,-1.1753 0.3267,-0.3835 0.6463,-0.774 1.0724,-1.0652 0.3551,-0.245 0.7634,-0.3693 1.1895,-0.4261 0.7208,-0.0994 1.3919,0.071 1.9849,0.4509 0.3515,0.2237 0.664,0.5078 0.9409,0.8345 0.6747,0.8025 1.1966,1.6972 1.779,2.5565 0.2947,0.4332 0.5219,0.909 0.7918,1.3564 0.316,0.5255 0.7101,0.9942 1.1043,1.463 0.3799,0.4509 0.8344,0.8024 1.3315,1.1149 0.4155,0.2627 0.8735,0.3977 1.3671,0.4829 0.7669,0.1314 1.47,-0.0533 2.1659,-0.3089 0.9836,-0.3622 1.8464,-0.9303 2.6951,-1.5198 0.8451,-0.5858 1.6866,-1.1824 2.5281,-1.7753 0.4971,-0.348 0.9871,-0.7137 1.502,-1.0369 1.0439,-0.6569 2.1163,-1.2676 3.2667,-1.7469 0.9339,-0.3871 1.8926,-0.6995 2.901,-0.8664 0.3835,-0.0639 0.7741,-0.0959 1.1575,-0.1527 0.5078,-0.0746 1.012,-0.0639 1.5162,-0.0497 0.8806,0.0284 1.747,0.174 2.585,0.4438 0.0532,0.0178 0.103,0.0568 0.213,0.1172 z"
       fill="#ffffff"
       id="path4" />
    <path
       d="m 35.9622,21.5354 c -0.0568,0.1243 -0.0781,0.2166 -0.1349,0.2876 -0.5148,0.6711 -1.0262,1.3422 -1.5517,2.0062 -0.4616,0.5859 -0.9303,1.1718 -1.4025,1.7506 -0.3409,0.419 -0.696,0.8273 -1.044,1.2427 -0.3692,0.4439 -0.735,0.8913 -1.1078,1.3316 -0.2627,0.3089 -0.5326,0.6143 -0.7954,0.9232 -0.5326,0.6285 -1.0616,1.2569 -1.5978,1.8854 -0.3764,0.4403 -0.7563,0.8735 -1.1363,1.3138 -0.1597,0.1847 -0.3195,0.3729 -0.4935,0.5788 0.1207,0.0071 0.2272,0.0142 0.3586,0.0213 -0.0071,0.2876 -0.1562,0.4971 -0.3089,0.6924 -0.174,0.2237 -0.3799,0.4225 -0.5717,0.632 -0.4829,0.5291 -0.9622,1.0582 -1.4451,1.5872 -0.1669,0.1811 -0.3303,0.3693 -0.4972,0.5504 -0.4083,0.4439 -0.8237,0.8877 -1.2321,1.3351 -0.3977,0.4403 -0.7811,0.8877 -1.1788,1.328 -0.1385,0.1527 -0.2912,0.2983 -0.4226,0.4651 0.2805,-0.0532 0.5007,-0.2095 0.7315,-0.3337 0.6675,-0.3658 1.3351,-0.7279 1.9955,-1.1043 0.7173,-0.4048 1.4345,-0.8061 2.1837,-1.154 1.0014,-0.4581 2.0346,-0.8132 3.1247,-1.0262 0.6463,-0.1278 1.289,-0.213 1.9494,-0.2059 0.4971,0.0071 0.9942,0 1.4949,0 0.2024,-0.1527 0.1527,-0.3977 0.1988,-0.5966 0.2202,-0.9622 0.5255,-1.8961 0.8877,-2.8157 0.3125,-0.8025 0.6889,-1.5766 1.115,-2.3293 0.2272,-0.4013 0.4829,-0.7883 0.7279,-1.1825 0.5326,-0.8486 1.1504,-1.6404 1.7789,-2.4216 0.5078,-0.632 1.0617,-1.2285 1.5979,-1.8393 0.561,-0.6391 1.1326,-1.2676 1.6901,-1.9103 0.1527,-0.174 0.2628,-0.3799 0.4048,-0.5894 -0.2841,-0.2131 -0.5965,-0.3409 -0.9054,-0.4581 -1.2109,-0.4616 -2.4359,-0.8948 -3.6502,-1.3564 -0.5611,-0.213 -1.1114,-0.4545 -1.6511,-0.7137 -0.3693,-0.1775 -0.7457,-0.3622 -1.0333,-0.664 -0.0497,-0.0497 -0.0817,-0.1136 -0.1314,-0.1811 0.1988,-0.2947 0.5113,-0.3657 0.8167,-0.3941 0.4403,-0.0355 0.8841,-0.0177 1.3209,0.0888 0.6533,0.1598 1.3102,0.316 1.9671,0.4651 0.2059,0.0462 0.419,0.0604 0.7208,0.103 -0.3693,-0.2415 -0.6995,-0.3693 -1.0262,-0.5078 -0.5077,-0.213 -1.019,-0.4296 -1.4025,-0.8379 -0.277,-0.2948 -0.3658,-0.6427 -0.3835,-1.0582 0.3586,-0.0284 0.6995,-0.0106 1.0404,-0.0106 0.3302,-0.0036 0.6604,0 1.0048,0 0.0071,-0.0604 0.0142,-0.103 0.0213,-0.1527 -0.3373,-0.2166 -0.6711,-0.4297 -0.9729,-0.6249 -0.0603,-0.2344 0.0178,-0.3871 0.1421,-0.5114 0.1207,-0.1171 0.2698,-0.2059 0.4438,-0.3373 0.0533,-0.2698 -0.1065,-0.561 -0.1704,-0.8593 -0.1101,-0.5077 -0.1066,-1.0084 0.0426,-1.5019 0.1917,-0.6321 0.5219,-1.1967 0.9374,-1.7186 0.3551,-0.4439 0.7279,-0.87351 1.1611,-1.24634 0.4154,-0.35507 0.838,-0.6995 1.2783,-1.02262 0.7385,-0.54682 1.4771,-1.09009 2.2405,-1.6014 0.7528,-0.50421 1.5339,-0.96936 2.3045,-1.44516 0.0852,-0.05326 0.1881,-0.14914 0.3195,-0.02486 -0.1172,0.2166 -0.3124,0.37283 -0.5077,0.52197 -0.6782,0.52196 -1.3671,1.02972 -2.0559,1.54103 -0.5469,0.40834 -1.0972,0.80958 -1.644,1.21792 -0.1776,0.13492 -0.3516,0.27341 -0.522,0.42254 -0.419,0.36928 -0.8522,0.72791 -1.2463,1.12202 -0.5859,0.5859 -1.1292,1.2073 -1.4985,1.9458 -0.2059,0.4155 -0.3444,0.8416 -0.3479,1.3174 0,0.529 0.2556,0.9054 0.6711,1.193 0.5042,0.3516 1.0865,0.554 1.6972,0.6676 0.8238,0.1527 1.6476,0.3054 2.4785,0.4296 0.5468,0.0817 1.083,0.206 1.6014,0.38 0.2379,0.0781 0.4687,0.1811 0.6853,0.3053 0.1207,0.071 0.2024,0.2024 0.3124,0.316 -0.3018,0.2379 -0.6249,0.3232 -0.9693,0.3445 -0.7386,0.039 -1.4523,-0.0852 -2.1589,-0.2805 -0.9374,-0.2592 -1.8783,-0.5114 -2.8193,-0.7599 -0.1669,-0.0462 -0.3409,-0.0781 -0.5113,-0.1136 0.1527,0.2059 0.4048,0.3728 0.7243,0.4829 0.5682,0.1988 1.154,0.3231 1.7399,0.4438 0.4545,0.0923 0.9126,0.1705 1.3529,0.3054 0.49,0.1491 0.9835,0.3018 1.4132,0.5788 0.2095,0.1349 0.3764,0.316 0.5574,0.5326 C 44.3811,18.393 44.129,18.361 43.8876,18.3433 43.6,18.322 43.3194,18.251 43.0354,18.2155 c -0.7847,-0.0959 -1.5446,-0.3019 -2.308,-0.4865 -0.838,-0.2024 -1.6724,-0.4154 -2.514,-0.6001 -0.3302,-0.071 -0.6746,-0.0745 -1.0261,-0.11 0.0781,0.245 0.1704,0.3941 0.3834,0.5077 0.3942,0.2131 0.7919,0.4261 1.2109,0.593 0.9835,0.3941 2.0168,0.6533 3.0359,0.9516 0.4687,0.1349 0.9303,0.2876 1.3919,0.4403 0.1314,0.0426 0.2556,0.103 0.3906,0.1598 0.0319,0.0603 0.0674,0.1207 0.1171,0.2095 -0.1633,0.0781 -0.3124,0.1775 -0.4758,0.2201 -0.2059,0.0533 -0.4225,0.0746 -0.632,0.0852 -0.8628,0.0391 -1.7008,-0.1136 -2.5459,-0.2734 -0.9587,-0.1846 -1.8997,-0.4332 -2.8513,-0.6356 -0.387,-0.0816 -0.774,-0.2059 -1.193,-0.1881 0.0497,0.1633 0.1882,0.2023 0.3053,0.2556 0.3658,0.1598 0.7315,0.3267 1.1079,0.4581 0.6711,0.2343 1.3493,0.4474 2.0275,0.664 0.7492,0.2343 1.5055,0.458 2.2547,0.6959 0.1385,0.0426 0.2663,0.1278 0.4048,0.1988 -0.0852,0.3196 -0.2273,0.5824 -0.387,0.8416 -0.4403,0.7208 -0.9659,1.3812 -1.4843,2.0488 -0.4154,0.5326 -0.8699,1.0332 -1.2996,1.5552 -0.6071,0.7386 -1.2072,1.4842 -1.8144,2.2228 -0.6888,0.838 -1.2534,1.7505 -1.7292,2.7128 -0.4616,0.9338 -0.838,1.8997 -1.012,2.9258 -0.0852,0.5078 -0.1527,1.0191 -0.2308,1.5304 -0.0604,0.3906 -0.1207,0.7812 -0.1882,1.2073 -0.3941,0.0177 -0.7989,0.0035 -1.2001,-0.0107 -0.1634,-0.0071 -0.3232,-0.0497 -0.4829,-0.0568 -0.3303,-0.0106 -0.664,-0.0035 -0.9943,-0.0071 -0.774,-0.0106 -1.5232,0.142 -2.2654,0.3338 -1.2321,0.3195 -2.4003,0.7918 -3.5223,1.3599 -0.7244,0.3658 -1.4203,0.7812 -2.1198,1.186 -0.7777,0.4474 -1.5482,0.9019 -2.3151,1.367 -0.4474,0.2699 -0.8806,0.561 -1.3138,0.8487 -0.0888,0.0603 -0.1669,0.142 -0.2308,0.2237 -0.1492,0.1953 -0.277,0.4012 -0.4261,0.5965 -0.0888,0.1172 -0.1918,0.2308 -0.3089,0.3196 -0.2699,0.2024 -0.5646,0.1668 -0.8629,-0.1101 0.245,-0.3125 0.4865,-0.6356 0.7457,-0.941 0.5681,-0.6782 1.1575,-1.3422 1.7221,-2.0239 0.7812,-0.9445 1.5446,-1.9032 2.3258,-2.8548 0.3515,-0.4261 0.7208,-0.8416 1.0759,-1.2641 0.4012,-0.4829 0.7918,-0.9694 1.1859,-1.4558 0.4119,-0.5042 0.8202,-1.0084 1.2357,-1.5091 0.3835,-0.4652 0.7705,-0.9232 1.1575,-1.3848 0.2699,-0.3196 0.554,-0.6285 0.8238,-0.9481 0.49,-0.5823 0.9765,-1.1682 1.4665,-1.7505 0.3835,-0.4509 0.7705,-0.8948 1.1575,-1.3422 0.4652,-0.5397 0.9268,-1.0865 1.4026,-1.6191 0.4012,-0.451 0.8238,-0.8877 1.2321,-1.3351 0.3977,-0.4368 0.7741,-0.8948 1.1824,-1.3245 0.3693,-0.387 0.7705,-0.7421 1.1576,-1.1114 0.0284,-0.0426 0.0603,-0.039 0.1597,-0.0568 z m -9.6545,11.849 c -0.1527,0.0816 -0.2841,0.1811 -0.3054,0.3657 -0.0142,0.0142 -0.0284,0.0319 -0.0426,0.0462 0.0107,-0.0178 0.0213,-0.0391 0.032,-0.0569 0.1456,-0.0887 0.2876,-0.1775 0.3053,-0.3621 0.0178,-0.0107 0.0356,-0.0213 0.0214,-0.0107 0.0071,-0.0248 0,-0.0035 -0.0107,0.0178 z m 0.0959,-0.1882 0.0177,0.0142 0.0036,-0.0249 z"
       fill="#ffffff"
       id="path6" />
    <path
       d="m 26.297,33.3737 c -0.0177,0.1882 -0.1597,0.277 -0.3053,0.3622 l 0.0106,0.0106 c 0.0213,-0.1846 0.1527,-0.284 0.3054,-0.3657 z"
       fill="#0055a6"
       id="path8" />
    <path
       d="m 26.4036,33.195 0.0189,-0.0095 -0.0032,0.0221 z"
       fill="#0055a6"
       id="path10" />
    <path
       d="m 26.307,33.3825 c 0.0067,-0.02 0.0167,-0.04 0.01,-0.02 0.0166,-0.01 -0.0033,0 -0.02,0.01 z"
       fill="#0055a6"
       id="path12" />
    <path
       d="m 25.9892,33.7359 c -0.0098,0.0164 -0.0197,0.036 -0.0295,0.0524 0.0131,-0.0131 0.0262,-0.0295 0.0393,-0.0426 z"
       fill="#0055a6"
       id="path14" />
  </g>
  <defs
     id="defs33">
    <clipPath
       id="clip0_84_249">
      <rect
         width="60.235298"
         height="60.235298"
         fill="#ffffff"
         id="rect30"
         x="0"
         y="0" />
    </clipPath>
  </defs>
</svg>
