<svg width="100%" height="27" viewBox="0 0 31 31" fill="none" xmlns="http://www.w3.org/2000/svg">
<path d="M29.7264 12.5272C30.3499 15.7916 29.8077 19.1713 28.1945 22.0769C26.5812 24.9825 23.9992 27.2297 20.8987 28.4265C17.7983 29.6232 14.3761 29.6937 11.229 28.6256C8.08187 27.5575 5.40953 25.4186 3.67799 22.5819C1.94646 19.7452 1.2656 16.3907 1.75416 13.1033C2.24271 9.816 3.86968 6.80447 6.35133 4.59391C8.83299 2.38335 12.0118 1.11403 15.3336 1.00732C18.6553 0.900608 21.9091 1.96327 24.5275 4.00998" stroke="#0055A6" stroke-width="2" stroke-linecap="round"/>
<line x1="7.5354" y1="16.04" x2="24.043" y2="16.04" stroke="#0055A6" stroke-width="2" stroke-linecap="round"/>
<line x1="11.2369" y1="9.87075" x2="20.3415" y2="9.87075" stroke="#0055A6" stroke-width="2" stroke-linecap="round"/>
<line x1="11.2369" y1="22.2092" x2="20.3415" y2="22.2092" stroke="#0055A6" stroke-width="2" stroke-linecap="round"/>
</svg>
