<svg width="32" height="31" viewBox="0 0 32 31" fill="none" xmlns="http://www.w3.org/2000/svg">
<path d="M2.23028 17.8512C1.60678 14.5868 2.14893 11.2071 3.76219 8.30145C5.37545 5.39584 7.95746 3.14871 11.0579 1.95193C14.1584 0.755143 17.5806 0.684655 20.7277 1.75276C23.8748 2.82086 26.5471 4.95977 28.2787 7.79649C30.0102 10.6332 30.6911 13.9877 30.2025 17.2751C29.714 20.5624 28.087 23.5739 25.6053 25.7845C23.1237 27.995 19.9448 29.2643 16.6231 29.3711C13.3014 29.4778 10.0476 28.4151 7.42919 26.3684" stroke="#0055A6" stroke-width="2" stroke-linecap="round"/>
<line x1="11.0384" y1="10.4965" x2="22.711" y2="22.1692" stroke="#0055A6" stroke-width="2" stroke-linecap="round"/>
<line x1="17.958" y1="10.742" x2="15.7935" y2="19.5856" stroke="#0055A6" stroke-width="2" stroke-linecap="round"/>
<line x1="12.1475" y1="16.1994" x2="21.219" y2="15.423" stroke="#0055A6" stroke-width="2" stroke-linecap="round"/>
</svg>
