<svg width="18" height="16" viewBox="0 0 18 16" fill="none" xmlns="http://www.w3.org/2000/svg">
<path d="M8.80543 2.47429C8.75204 2.42342 8.68101 2.39503 8.60713 2.39503C8.53325 2.39503 8.46222 2.42342 8.40883 2.47429L1.80728 8.75536C1.77925 8.78207 1.75694 8.81417 1.74172 8.84971C1.72649 8.88525 1.71867 8.9235 1.71871 8.96214L1.71764 14.8571C1.71764 15.1602 1.83853 15.4509 2.05372 15.6653C2.26892 15.8796 2.56078 16 2.86511 16H6.31111C6.46327 16 6.6092 15.9398 6.7168 15.8326C6.8244 15.7255 6.88485 15.5801 6.88485 15.4286V10.5714C6.88485 10.4957 6.91507 10.423 6.96887 10.3694C7.02266 10.3158 7.09563 10.2857 7.17171 10.2857H10.0404C10.1165 10.2857 10.1894 10.3158 10.2432 10.3694C10.297 10.423 10.3273 10.4957 10.3273 10.5714V15.4286C10.3273 15.5801 10.3877 15.7255 10.4953 15.8326C10.6029 15.9398 10.7488 16 10.901 16H14.3456C14.6499 16 14.9418 15.8796 15.1569 15.6653C15.3721 15.4509 15.493 15.1602 15.493 14.8571V8.96214C15.4931 8.9235 15.4853 8.88525 15.47 8.84971C15.4548 8.81417 15.4325 8.78207 15.4045 8.75536L8.80543 2.47429Z" fill="#0055A6"/>
<path d="M17.0296 7.57679L14.3474 5.02107V1.14286C14.3474 0.991305 14.2869 0.84596 14.1793 0.738796C14.0717 0.631632 13.9258 0.571429 13.7736 0.571429H12.0524C11.9002 0.571429 11.7543 0.631632 11.6467 0.738796C11.5391 0.84596 11.4787 0.991305 11.4787 1.14286V2.28571L9.40175 0.307857C9.2074 0.112143 8.91838 0 8.60605 0C8.2948 0 8.0065 0.112143 7.81215 0.308214L0.185043 7.57607C-0.0379964 7.79036 -0.065966 8.14286 0.136993 8.375C0.187959 8.4336 0.250364 8.48125 0.320409 8.51506C0.390454 8.54888 0.466675 8.56814 0.544432 8.57168C0.622189 8.57522 0.699857 8.56297 0.772708 8.53566C0.845559 8.50836 0.91207 8.46658 0.968193 8.41286L8.40883 1.33143C8.46222 1.28056 8.53325 1.25218 8.60713 1.25218C8.68101 1.25218 8.75204 1.28056 8.80543 1.33143L16.2468 8.41286C16.3564 8.51755 16.5032 8.57469 16.6551 8.57175C16.8069 8.5688 16.9514 8.50601 17.0568 8.39714C17.277 8.17 17.2587 7.795 17.0296 7.57679Z" fill="#0055A6"/>
</svg>
