<svg width="57" height="57" viewBox="0 0 57 57" fill="none" xmlns="http://www.w3.org/2000/svg">
<path d="M35.625 10.6875H9.79688C8.61583 10.6875 7.48316 11.1567 6.64804 11.9918C5.81292 12.8269 5.34375 13.9596 5.34375 15.1406V41.8594C5.34375 43.0404 5.81292 44.1731 6.64804 45.0082C7.48316 45.8433 8.61583 46.3125 9.79688 46.3125H47.0617C48.2428 46.3125 49.3755 45.8433 50.2106 45.0082C51.0457 44.1731 51.5149 43.0404 51.5149 41.8594V26.6074" stroke="white" stroke-width="3.5625" stroke-linecap="round" stroke-linejoin="round"/>
<path d="M12.4688 17.8125L28.5 30.2812L38.1855 22.9703" stroke="white" stroke-width="3.5625" stroke-linecap="round" stroke-linejoin="round"/>
<path d="M48.0882 19.5938C51.0364 19.5938 53.4264 17.2038 53.4264 14.2556C53.4264 11.3074 51.0364 8.91742 48.0882 8.91742C45.14 8.91742 42.75 11.3074 42.75 14.2556C42.75 17.2038 45.14 19.5938 48.0882 19.5938Z" fill="white"/>
<path d="M48.0937 21.3749C46.6857 21.3749 45.3092 20.9574 44.1384 20.1751C42.9676 19.3928 42.0551 18.2809 41.5162 16.98C40.9774 15.6791 40.8364 14.2476 41.1111 12.8666C41.3858 11.4855 42.0639 10.217 43.0595 9.22131C44.0552 8.22564 45.3238 7.54758 46.7048 7.27288C48.0858 6.99817 49.5173 7.13916 50.8182 7.67802C52.1191 8.21687 53.231 9.12938 54.0133 10.3002C54.7956 11.471 55.2132 12.8474 55.2132 14.2555C55.2117 16.1433 54.4611 17.9533 53.1263 19.2881C51.7915 20.6229 49.9815 21.3735 48.0937 21.3749ZM48.0937 10.6986C47.3889 10.6975 46.6996 10.9055 46.113 11.2963C45.5264 11.687 45.0689 12.243 44.7985 12.8939C44.528 13.5448 44.4566 14.2612 44.5934 14.9527C44.7303 15.6441 45.0691 16.2794 45.5671 16.7782C46.0651 17.277 46.6999 17.6168 47.3911 17.7547C48.0823 17.8926 48.7989 17.8224 49.4502 17.5529C50.1015 17.2835 50.6582 16.8268 51.0499 16.2409C51.4416 15.6549 51.6507 14.9659 51.6507 14.2611C51.6507 13.3172 51.2761 12.4119 50.6092 11.744C49.9423 11.076 49.0376 10.7001 48.0937 10.6986Z" fill="white"/>
</svg>
