<svg width="16" height="16" viewBox="0 0 16 16" fill="none" xmlns="http://www.w3.org/2000/svg">
<path d="M8 14C7.79929 13.9997 7.6033 13.9391 7.43753 13.8259C4.98172 12.1587 3.91834 11.0156 3.33181 10.3009C2.08188 8.7775 1.48347 7.21344 1.50035 5.51969C1.52003 3.57875 3.07714 2 4.97141 2C6.34884 2 7.30285 2.77594 7.85845 3.42219C7.87605 3.44245 7.89779 3.4587 7.92221 3.46984C7.94663 3.48098 7.97316 3.48674 8 3.48674C8.02684 3.48674 8.05337 3.48098 8.07779 3.46984C8.10221 3.4587 8.12396 3.44245 8.14156 3.42219C8.69715 2.77531 9.65116 2 11.0286 2C12.9229 2 14.48 3.57875 14.4997 5.52C14.5165 7.21406 13.9175 8.77813 12.6682 10.3013C12.0817 11.0159 11.0183 12.1591 8.56247 13.8263C8.39666 13.9393 8.20068 13.9998 8 14Z" stroke="#A1A1A1"/>
</svg>
