<svg width="17" height="16" viewBox="0 0 17 16" fill="none" xmlns="http://www.w3.org/2000/svg">
<path d="M12.6 10.5C12.3306 10.4999 12.064 10.5544 11.8163 10.6602C11.5686 10.766 11.3449 10.9209 11.1588 11.1156L6.53375 8.51344C6.62334 8.17701 6.62334 7.82299 6.53375 7.48656L11.1588 4.88438C11.4955 5.23355 11.9481 5.44794 12.4316 5.4874C12.9151 5.52686 13.3964 5.38867 13.7854 5.09873C14.1743 4.80879 14.4442 4.38698 14.5445 3.91233C14.6447 3.43769 14.5685 2.94276 14.3301 2.52029C14.0916 2.09781 13.7073 1.77677 13.2491 1.6173C12.791 1.45783 12.2904 1.47089 11.8412 1.65402C11.3919 1.83714 11.0249 2.17778 10.8088 2.61211C10.5927 3.04644 10.5423 3.54466 10.6672 4.01344L6.04219 6.61563C5.76592 6.32757 5.40979 6.12877 5.01961 6.04478C4.62942 5.9608 4.22304 5.99547 3.85272 6.14435C3.48241 6.29323 3.16511 6.5495 2.94164 6.88019C2.71817 7.21089 2.59875 7.60088 2.59875 8C2.59875 8.39912 2.71817 8.78911 2.94164 9.11981C3.16511 9.4505 3.48241 9.70677 3.85272 9.85565C4.22304 10.0045 4.62942 10.0392 5.01961 9.95522C5.40979 9.87123 5.76592 9.67243 6.04219 9.38438L10.6672 11.9866C10.56 12.3903 10.5818 12.8174 10.7297 13.2081C10.8776 13.5987 11.1441 13.9333 11.4918 14.1648C11.8395 14.3963 12.2509 14.5131 12.6684 14.4988C13.0858 14.4846 13.4884 14.34 13.8195 14.0853C14.1506 13.8307 14.3936 13.4787 14.5145 13.0789C14.6355 12.6791 14.6281 12.2514 14.4936 11.856C14.3591 11.4605 14.1042 11.1171 13.7646 10.8739C13.4249 10.6307 13.0177 10.5 12.6 10.5Z" fill="#A1A1A1"/>
</svg>
