<svg width="100%" height="27" viewBox="0 0 26 24" fill="none" xmlns="http://www.w3.org/2000/svg">
<path d="M16.7554 6.38517H9.24462C8.04579 6.38517 7.07045 7.31407 7.07045 8.4558V15.6089C7.07045 16.7506 8.04579 17.6798 9.24462 17.6798H16.7554C17.9542 17.6798 18.9298 16.7509 18.9298 15.6089V8.4558C18.9298 7.31407 17.9545 6.38517 16.7554 6.38517ZM13 15.7506C10.8474 15.7506 9.0961 14.0827 9.0961 12.0324C9.0961 9.98231 10.8474 8.31436 13 8.31436C15.1528 8.31436 16.9042 9.98231 16.9042 12.0324C16.9042 14.0824 15.1525 15.7506 13 15.7506ZM17.0297 9.08309C16.5201 9.08309 16.1057 8.68843 16.1057 8.20339C16.1057 7.71835 16.5201 7.32369 17.0297 7.32369C17.539 7.32369 17.9534 7.71835 17.9534 8.20339C17.9534 8.68843 17.539 9.08309 17.0297 9.08309Z" fill="#0055A6"/>
<path d="M13 9.88551C11.7574 9.88551 10.7455 10.8486 10.7455 12.0321C10.7455 13.2161 11.7574 14.1795 13 14.1795C14.2432 14.1795 15.2542 13.2161 15.2542 12.0321C15.2542 10.8489 14.2429 9.88551 13 9.88551Z" fill="#0055A6"/>
<path d="M13 0C6.04148 0 0.399994 5.37285 0.399994 12C0.399994 18.6272 6.04148 24 13 24C19.9585 24 25.6 18.6272 25.6 12C25.6 5.37285 19.9585 0 13 0ZM20.5793 15.6089C20.5793 17.6172 18.8641 19.2507 16.7554 19.2507H9.24462C7.13615 19.2507 5.42073 17.6172 5.42073 15.6089V8.4558C5.42073 6.44774 7.13615 4.81401 9.24462 4.81401H16.7554C18.8641 4.81401 20.5793 6.44774 20.5793 8.4558V15.6089Z" fill="#0055A6"/>
</svg>
