<svg width="100%" height="22" viewBox="0 0 27 22" fill="none" xmlns="http://www.w3.org/2000/svg">
<path d="M26.4 2.55938C25.4097 2.99945 24.3619 3.28938 23.2898 3.42C24.4165 2.74521 25.2639 1.6732 25.6729 0.405008C24.6076 1.04209 23.4441 1.48909 22.2321 1.72688C21.7218 1.17987 21.108 0.744703 20.4281 0.44784C19.7482 0.150976 19.0163 -0.00138787 18.277 9.52558e-06C15.2839 9.52558e-06 12.8618 2.44125 12.8618 5.45062C12.8596 5.86921 12.9065 6.28655 13.0014 6.69374C10.8552 6.59084 8.75354 6.03088 6.83099 5.0497C4.90844 4.06852 3.20732 2.68772 1.83645 0.995631C1.35552 1.82482 1.10117 2.7709 1.1 3.735C1.1 5.62499 2.06415 7.29561 3.52 8.27436C2.65745 8.25342 1.81257 8.01994 1.0571 7.59374V7.66124C1.0571 10.305 2.9271 12.5043 5.4021 13.005C4.93668 13.1319 4.45707 13.1962 3.9754 13.1962C3.63362 13.1968 3.29261 13.1629 2.95735 13.095C3.6454 15.2606 5.64795 16.8356 8.0201 16.8806C6.09256 18.3998 3.72604 19.221 1.2925 19.215C0.86054 19.2143 0.428981 19.188 0 19.1362C2.47565 20.7529 5.35339 21.6081 8.2907 21.5999C18.2655 21.5999 23.7149 13.2918 23.7149 6.08624C23.7149 5.84999 23.7088 5.61374 23.6978 5.38312C24.7555 4.61365 25.6706 3.65744 26.4 2.55938Z" fill="#0055A6"/>
</svg>
