<svg width="100%" height="100" viewBox="0 0 1 80" fill="none" xmlns="http://www.w3.org/2000/svg">
<g clip-path="url(#clip0_84_249)">
<path d="M30.1177 60.2353C46.7512 60.2353 60.2353 46.7512 60.2353 30.1177C60.2353 13.4841 46.7512 0 30.1177 0C13.4841 0 0 13.4841 0 30.1177C0 46.7512 13.4841 60.2353 30.1177 60.2353Z" fill="#0055A6"/>
<path d="M53.8581 42.2684C53.2971 42.4566 52.7929 42.6412 52.278 42.7975C51.7774 42.9501 51.2696 43.0815 50.7619 43.2129C49.9523 43.4224 49.1427 43.6248 48.3296 43.8307C47.4809 44.0473 46.643 44.2852 45.8298 44.6119C44.6368 45.0913 43.5502 45.7446 42.4957 46.4441C41.75 46.9377 41.0434 47.4845 40.3155 48.0029C39.5663 48.532 38.8277 49.0823 38.0536 49.5759C36.992 50.2541 35.8664 50.8151 34.6271 51.1418C34.1797 51.259 33.7288 51.369 33.2565 51.3584C32.8269 51.3477 32.4008 51.3832 31.9676 51.2909C31.2539 51.1418 30.5935 50.8861 30.0147 50.4707C29.2477 49.9239 28.6015 49.2563 28.0582 48.5036C27.4865 47.7082 26.9397 46.9022 26.3752 46.1068C26.1763 45.8298 25.9526 45.5671 25.7289 45.3043C25.6579 45.2191 25.5727 45.141 25.4768 45.0842C25.2531 44.9492 25.0223 44.8285 24.8412 44.7255C24.2056 44.6439 23.7369 44.8711 23.3463 45.2368C22.8847 45.67 22.4515 46.1316 22.0042 46.579C21.6988 46.8879 21.3721 47.172 20.9957 47.4064C20.5341 47.6975 20.0299 47.8751 19.4796 47.9106C19.089 47.9354 18.709 47.8325 18.3327 47.733C17.4627 47.4951 16.7881 46.998 16.2306 46.3269C15.8684 45.8902 15.4814 45.4747 15.0837 45.0664C14.4978 44.4663 13.7841 44.097 12.9248 43.9657C12.3816 43.884 11.8383 43.8343 11.3128 43.987C10.9683 44.0864 10.6381 44.2568 10.3328 44.4415C9.67232 44.8427 9.15391 45.3966 8.62129 45.9328C8.21295 46.3447 7.82592 46.7814 7.43178 47.204C7.2862 47.3602 7.11221 47.4738 6.88496 47.5271C6.82815 47.4703 6.76779 47.4099 6.72163 47.3638C6.66126 47.0158 6.76779 46.7282 6.90982 46.437C7.21873 45.7908 7.67323 45.2439 8.17389 44.7326C8.51122 44.3847 8.85919 44.0438 9.23202 43.7278C10.1836 42.9217 11.2347 42.2684 12.4561 41.8849C13.0527 41.6967 13.6705 41.647 14.2883 41.7109C14.5688 41.7393 14.8493 41.8423 15.1121 41.9488C15.7335 42.2009 16.2697 42.5809 16.8058 42.9679C17.2887 43.3159 17.7361 43.71 18.3007 43.9479C18.5919 44.0686 18.8866 44.1681 19.2061 44.1787C19.7991 44.1965 20.2927 43.955 20.6939 43.5715C21.0774 43.2058 21.4218 42.7975 21.7662 42.3962C22.0929 42.0127 22.4125 41.6222 22.8386 41.331C23.1937 41.086 23.602 40.9617 24.0281 40.9049C24.7489 40.8055 25.42 40.9759 26.013 41.3558C26.3645 41.5795 26.677 41.8636 26.9539 42.1903C27.6286 42.9928 28.1505 43.8875 28.7329 44.7468C29.0276 45.18 29.2548 45.6558 29.5247 46.1032C29.8407 46.6287 30.2348 47.0974 30.629 47.5662C31.0089 48.0171 31.4634 48.3686 31.9605 48.6811C32.376 48.9438 32.834 49.0788 33.3276 49.164C34.0945 49.2954 34.7976 49.1107 35.4935 48.8551C36.4771 48.4929 37.3399 47.9248 38.1886 47.3353C39.0337 46.7495 39.8752 46.1529 40.7167 45.56C41.2138 45.212 41.7038 44.8463 42.2187 44.5231C43.2626 43.8662 44.335 43.2555 45.4854 42.7762C46.4193 42.3891 47.378 42.0767 48.3864 41.9098C48.7699 41.8459 49.1605 41.8139 49.5439 41.7571C50.0517 41.6825 50.5559 41.6932 51.0601 41.7074C51.9407 41.7358 52.8071 41.8814 53.6451 42.1512C53.6983 42.169 53.7481 42.208 53.8581 42.2684Z" fill="white"/>
<path d="M35.9622 21.5354C35.9054 21.6597 35.8841 21.752 35.8273 21.823C35.3125 22.4941 34.8011 23.1652 34.2756 23.8292C33.814 24.4151 33.3453 25.001 32.8731 25.5798C32.5322 25.9988 32.1771 26.4071 31.8291 26.8225C31.4599 27.2664 31.0941 27.7138 30.7213 28.1541C30.4586 28.463 30.1887 28.7684 29.9259 29.0773C29.3933 29.7058 28.8643 30.3342 28.3281 30.9627C27.9517 31.403 27.5718 31.8362 27.1918 32.2765C27.0321 32.4612 26.8723 32.6494 26.6983 32.8553C26.819 32.8624 26.9255 32.8695 27.0569 32.8766C27.0498 33.1642 26.9007 33.3737 26.748 33.569C26.574 33.7927 26.3681 33.9915 26.1763 34.201C25.6934 34.7301 25.2141 35.2592 24.7312 35.7882C24.5643 35.9693 24.4009 36.1575 24.234 36.3386C23.8257 36.7825 23.4103 37.2263 23.0019 37.6737C22.6042 38.114 22.2208 38.5614 21.8231 39.0017C21.6846 39.1544 21.5319 39.3 21.4005 39.4668C21.681 39.4136 21.9012 39.2573 22.132 39.1331C22.7995 38.7673 23.4671 38.4052 24.1275 38.0288C24.8448 37.624 25.562 37.2227 26.3112 36.8748C27.3126 36.4167 28.3458 36.0616 29.4359 35.8486C30.0822 35.7208 30.7249 35.6356 31.3853 35.6427C31.8824 35.6498 32.3795 35.6427 32.8802 35.6427C33.0826 35.49 33.0329 35.245 33.079 35.0461C33.2992 34.0839 33.6045 33.15 33.9667 32.2304C34.2792 31.4279 34.6556 30.6538 35.0817 29.9011C35.3089 29.4998 35.5646 29.1128 35.8096 28.7186C36.3422 27.87 36.96 27.0782 37.5885 26.297C38.0963 25.665 38.6502 25.0685 39.1864 24.4577C39.7474 23.8186 40.319 23.1901 40.8765 22.5474C41.0292 22.3734 41.1393 22.1675 41.2813 21.958C40.9972 21.7449 40.6848 21.6171 40.3759 21.4999C39.165 21.0383 37.94 20.6051 36.7257 20.1435C36.1646 19.9305 35.6143 19.689 35.0746 19.4298C34.7053 19.2523 34.3289 19.0676 34.0413 18.7658C33.9916 18.7161 33.9596 18.6522 33.9099 18.5847C34.1087 18.29 34.4212 18.219 34.7266 18.1906C35.1669 18.1551 35.6107 18.1729 36.0475 18.2794C36.7008 18.4392 37.3577 18.5954 38.0146 18.7445C38.2205 18.7907 38.4336 18.8049 38.7354 18.8475C38.3661 18.606 38.0359 18.4782 37.7092 18.3397C37.2015 18.1267 36.6902 17.9101 36.3067 17.5018C36.0297 17.207 35.9409 16.8591 35.9232 16.4436C36.2818 16.4152 36.6227 16.433 36.9636 16.433C37.2938 16.4294 37.624 16.433 37.9684 16.433C37.9755 16.3726 37.9826 16.33 37.9897 16.2803C37.6524 16.0637 37.3186 15.8506 37.0168 15.6554C36.9565 15.421 37.0346 15.2683 37.1589 15.144C37.2796 15.0269 37.4287 14.9381 37.6027 14.8067C37.656 14.5369 37.4962 14.2457 37.4323 13.9474C37.3222 13.4397 37.3257 12.939 37.4749 12.4455C37.6666 11.8134 37.9968 11.2488 38.4123 10.7269C38.7674 10.283 39.1402 9.85339 39.5734 9.48056C39.9888 9.12549 40.4114 8.78106 40.8517 8.45794C41.5902 7.91112 42.3288 7.36785 43.0922 6.85654C43.845 6.35233 44.6261 5.88718 45.3967 5.41138C45.4819 5.35812 45.5848 5.26224 45.7162 5.38652C45.599 5.60312 45.4038 5.75935 45.2085 5.90849C44.5303 6.43045 43.8414 6.93821 43.1526 7.44952C42.6057 7.85786 42.0554 8.2591 41.5086 8.66744C41.331 8.80236 41.157 8.94085 40.9866 9.08998C40.5676 9.45926 40.1344 9.81789 39.7403 10.212C39.1544 10.7979 38.6111 11.4193 38.2418 12.1578C38.0359 12.5733 37.8974 12.9994 37.8939 13.4752C37.8939 14.0042 38.1495 14.3806 38.565 14.6682C39.0692 15.0198 39.6515 15.2222 40.2622 15.3358C41.086 15.4885 41.9098 15.6412 42.7407 15.7654C43.2875 15.8471 43.8237 15.9714 44.3421 16.1454C44.58 16.2235 44.8108 16.3265 45.0274 16.4507C45.1481 16.5217 45.2298 16.6531 45.3398 16.7667C45.038 17.0046 44.7149 17.0899 44.3705 17.1112C43.6319 17.1502 42.9182 17.026 42.2116 16.8307C41.2742 16.5715 40.3333 16.3193 39.3923 16.0708C39.2254 16.0246 39.0514 15.9927 38.881 15.9572C39.0337 16.1631 39.2858 16.33 39.6053 16.4401C40.1735 16.6389 40.7593 16.7632 41.3452 16.8839C41.7997 16.9762 42.2578 17.0544 42.6981 17.1893C43.1881 17.3384 43.6816 17.4911 44.1113 17.7681C44.3208 17.903 44.4877 18.0841 44.6687 18.3007C44.3811 18.393 44.129 18.361 43.8876 18.3433C43.6 18.322 43.3194 18.251 43.0354 18.2155C42.2507 18.1196 41.4908 17.9136 40.7274 17.729C39.8894 17.5266 39.055 17.3136 38.2134 17.1289C37.8832 17.0579 37.5388 17.0544 37.1873 17.0189C37.2654 17.2639 37.3577 17.413 37.5707 17.5266C37.9649 17.7397 38.3626 17.9527 38.7816 18.1196C39.7651 18.5137 40.7984 18.7729 41.8175 19.0712C42.2862 19.2061 42.7478 19.3588 43.2094 19.5115C43.3408 19.5541 43.465 19.6145 43.6 19.6713C43.6319 19.7316 43.6674 19.792 43.7171 19.8808C43.5538 19.9589 43.4047 20.0583 43.2413 20.1009C43.0354 20.1542 42.8188 20.1755 42.6093 20.1861C41.7465 20.2252 40.9085 20.0725 40.0634 19.9127C39.1047 19.7281 38.1637 19.4795 37.2121 19.2771C36.8251 19.1955 36.4381 19.0712 36.0191 19.089C36.0688 19.2523 36.2073 19.2913 36.3244 19.3446C36.6902 19.5044 37.0559 19.6713 37.4323 19.8027C38.1034 20.037 38.7816 20.2501 39.4598 20.4667C40.209 20.701 40.9653 20.9247 41.7145 21.1626C41.853 21.2052 41.9808 21.2904 42.1193 21.3614C42.0341 21.681 41.892 21.9438 41.7323 22.203C41.292 22.9238 40.7664 23.5842 40.248 24.2518C39.8326 24.7844 39.3781 25.285 38.9484 25.807C38.3413 26.5456 37.7412 27.2912 37.134 28.0298C36.4452 28.8678 35.8806 29.7803 35.4048 30.7426C34.9432 31.6764 34.5668 32.6423 34.3928 33.6684C34.3076 34.1762 34.2401 34.6875 34.162 35.1988C34.1016 35.5894 34.0413 35.98 33.9738 36.4061C33.5797 36.4238 33.1749 36.4096 32.7737 36.3954C32.6103 36.3883 32.4505 36.3457 32.2908 36.3386C31.9605 36.328 31.6268 36.3351 31.2965 36.3315C30.5225 36.3209 29.7733 36.4735 29.0311 36.6653C27.799 36.9848 26.6308 37.4571 25.5088 38.0252C24.7844 38.391 24.0885 38.8064 23.389 39.2112C22.6113 39.6586 21.8408 40.1131 21.0739 40.5782C20.6265 40.8481 20.1933 41.1392 19.7601 41.4269C19.6713 41.4872 19.5932 41.5689 19.5293 41.6506C19.3801 41.8459 19.2523 42.0518 19.1032 42.2471C19.0144 42.3643 18.9114 42.4779 18.7943 42.5667C18.5244 42.7691 18.2297 42.7335 17.9314 42.4566C18.1764 42.1441 18.4179 41.821 18.6771 41.5156C19.2452 40.8374 19.8346 40.1734 20.3992 39.4917C21.1804 38.5472 21.9438 37.5885 22.725 36.6369C23.0765 36.2108 23.4458 35.7953 23.8009 35.3728C24.2021 34.8899 24.5927 34.4034 24.9868 33.917C25.3987 33.4128 25.807 32.9086 26.2225 32.4079C26.606 31.9427 26.993 31.4847 27.38 31.0231C27.6499 30.7035 27.934 30.3946 28.2038 30.075C28.6938 29.4927 29.1803 28.9068 29.6703 28.3245C30.0538 27.8736 30.4408 27.4297 30.8278 26.9823C31.293 26.4426 31.7546 25.8958 32.2304 25.3632C32.6316 24.9122 33.0542 24.4755 33.4625 24.0281C33.8602 23.5913 34.2366 23.1333 34.6449 22.7036C35.0142 22.3166 35.4154 21.9615 35.8025 21.5922C35.8309 21.5496 35.8628 21.5532 35.9622 21.5354ZM26.3077 33.3844C26.155 33.466 26.0236 33.5655 26.0023 33.7501C25.9881 33.7643 25.9739 33.782 25.9597 33.7963C25.9704 33.7785 25.981 33.7572 25.9917 33.7394C26.1373 33.6507 26.2793 33.5619 26.297 33.3773C26.3148 33.3666 26.3326 33.356 26.3184 33.3666C26.3255 33.3418 26.3184 33.3631 26.3077 33.3844ZM26.4036 33.1962L26.4213 33.2104L26.4249 33.1855L26.4036 33.1962Z" fill="white"/>
</g>
<defs>
<clipPath id="clip0_84_249">
<rect width="60.2353" height="60.2353" fill="white"/>
</clipPath>
</defs>
</svg>