


<svg
   width="100%"
   height="auto"
   viewBox="0 0 419 160"
   xmlns="http://www.w3.org/2000/svg">

  <!-- First SVG - Logo -->
  <svg
    width="60.235298"   
    height="60.235298"
    viewBox="0 0 60.235298 60.235298"
    fill="none"
    xmlns="http://www.w3.org/2000/svg">
    <?xml version="1.0" encoding="UTF-8" standalone="no"?>
  <sodipodi:namedview
     id="namedview37"
     pagecolor="#ffffff"
     bordercolor="#cccccc"
     borderopacity="1"
     inkscape:showpageshadow="0"
     inkscape:pageopacity="1"
     inkscape:pagecheckerboard="0"
     inkscape:deskcolor="#d1d1d1"
     showgrid="false"
     inkscape:zoom="7.304687"
     inkscape:cx="8.4192519"
     inkscape:cy="15.743317"
     inkscape:window-width="1920"
     inkscape:window-height="1057"
     inkscape:window-x="-8"
     inkscape:window-y="-8"
     inkscape:window-maximized="1"
     inkscape:current-layer="svg35" />
  <g
     clip-path="url(#clip0_84_249)"
     id="g16">
    <path
       d="m 30.1177,60.2353 c 16.6335,0 30.1176,-13.4841 30.1176,-30.1176 C 60.2353,13.4841 46.7512,0 30.1177,0 13.4841,0 0,13.4841 0,30.1177 0,46.7512 13.4841,60.2353 30.1177,60.2353 Z"
       fill="#0055a6"
       id="path2" />
    <path
       d="m 53.8581,42.2684 c -0.561,0.1882 -1.0652,0.3728 -1.5801,0.5291 -0.5006,0.1526 -1.0084,0.284 -1.5161,0.4154 -0.8096,0.2095 -1.6192,0.4119 -2.4323,0.6178 -0.8487,0.2166 -1.6866,0.4545 -2.4998,0.7812 -1.193,0.4794 -2.2796,1.1327 -3.3341,1.8322 -0.7457,0.4936 -1.4523,1.0404 -2.1802,1.5588 -0.7492,0.5291 -1.4878,1.0794 -2.2619,1.573 -1.0616,0.6782 -2.1872,1.2392 -3.4265,1.5659 -0.4474,0.1172 -0.8983,0.2272 -1.3706,0.2166 -0.4296,-0.0107 -0.8557,0.0248 -1.2889,-0.0675 -0.7137,-0.1491 -1.3741,-0.4048 -1.9529,-0.8202 -0.767,-0.5468 -1.4132,-1.2144 -1.9565,-1.9671 -0.5717,-0.7954 -1.1185,-1.6014 -1.683,-2.3968 -0.1989,-0.277 -0.4226,-0.5397 -0.6463,-0.8025 -0.071,-0.0852 -0.1562,-0.1633 -0.2521,-0.2201 -0.2237,-0.135 -0.4545,-0.2557 -0.6356,-0.3587 -0.6356,-0.0816 -1.1043,0.1456 -1.4949,0.5113 -0.4616,0.4332 -0.8948,0.8948 -1.3421,1.3422 -0.3054,0.3089 -0.6321,0.593 -1.0085,0.8274 -0.4616,0.2911 -0.9658,0.4687 -1.5161,0.5042 -0.3906,0.0248 -0.7706,-0.0781 -1.1469,-0.1776 -0.87,-0.2379 -1.5446,-0.735 -2.1021,-1.4061 -0.3622,-0.4367 -0.7492,-0.8522 -1.1469,-1.2605 -0.5859,-0.6001 -1.2996,-0.9694 -2.1589,-1.1007 -0.5432,-0.0817 -1.0865,-0.1314 -1.612,0.0213 -0.3445,0.0994 -0.6747,0.2698 -0.98,0.4545 C 9.67232,44.8427 9.15391,45.3966 8.62129,45.9328 8.21295,46.3447 7.82592,46.7814 7.43178,47.204 7.2862,47.3602 7.11221,47.4738 6.88496,47.5271 6.82815,47.4703 6.76779,47.4099 6.72163,47.3638 6.66126,47.0158 6.76779,46.7282 6.90982,46.437 c 0.30891,-0.6462 0.76341,-1.1931 1.26407,-1.7044 0.33733,-0.3479 0.6853,-0.6888 1.05813,-1.0048 0.95158,-0.8061 2.00268,-1.4594 3.22408,-1.8429 0.5966,-0.1882 1.2144,-0.2379 1.8322,-0.174 0.2805,0.0284 0.561,0.1314 0.8238,0.2379 0.6214,0.2521 1.1576,0.6321 1.6937,1.0191 0.4829,0.348 0.9303,0.7421 1.4949,0.98 0.2912,0.1207 0.5859,0.2202 0.9054,0.2308 0.593,0.0178 1.0866,-0.2237 1.4878,-0.6072 0.3835,-0.3657 0.7279,-0.774 1.0723,-1.1753 0.3267,-0.3835 0.6463,-0.774 1.0724,-1.0652 0.3551,-0.245 0.7634,-0.3693 1.1895,-0.4261 0.7208,-0.0994 1.3919,0.071 1.9849,0.4509 0.3515,0.2237 0.664,0.5078 0.9409,0.8345 0.6747,0.8025 1.1966,1.6972 1.779,2.5565 0.2947,0.4332 0.5219,0.909 0.7918,1.3564 0.316,0.5255 0.7101,0.9942 1.1043,1.463 0.3799,0.4509 0.8344,0.8024 1.3315,1.1149 0.4155,0.2627 0.8735,0.3977 1.3671,0.4829 0.7669,0.1314 1.47,-0.0533 2.1659,-0.3089 0.9836,-0.3622 1.8464,-0.9303 2.6951,-1.5198 0.8451,-0.5858 1.6866,-1.1824 2.5281,-1.7753 0.4971,-0.348 0.9871,-0.7137 1.502,-1.0369 1.0439,-0.6569 2.1163,-1.2676 3.2667,-1.7469 0.9339,-0.3871 1.8926,-0.6995 2.901,-0.8664 0.3835,-0.0639 0.7741,-0.0959 1.1575,-0.1527 0.5078,-0.0746 1.012,-0.0639 1.5162,-0.0497 0.8806,0.0284 1.747,0.174 2.585,0.4438 0.0532,0.0178 0.103,0.0568 0.213,0.1172 z"
       fill="#ffffff"
       id="path4" />
    <path
       d="m 35.9622,21.5354 c -0.0568,0.1243 -0.0781,0.2166 -0.1349,0.2876 -0.5148,0.6711 -1.0262,1.3422 -1.5517,2.0062 -0.4616,0.5859 -0.9303,1.1718 -1.4025,1.7506 -0.3409,0.419 -0.696,0.8273 -1.044,1.2427 -0.3692,0.4439 -0.735,0.8913 -1.1078,1.3316 -0.2627,0.3089 -0.5326,0.6143 -0.7954,0.9232 -0.5326,0.6285 -1.0616,1.2569 -1.5978,1.8854 -0.3764,0.4403 -0.7563,0.8735 -1.1363,1.3138 -0.1597,0.1847 -0.3195,0.3729 -0.4935,0.5788 0.1207,0.0071 0.2272,0.0142 0.3586,0.0213 -0.0071,0.2876 -0.1562,0.4971 -0.3089,0.6924 -0.174,0.2237 -0.3799,0.4225 -0.5717,0.632 -0.4829,0.5291 -0.9622,1.0582 -1.4451,1.5872 -0.1669,0.1811 -0.3303,0.3693 -0.4972,0.5504 -0.4083,0.4439 -0.8237,0.8877 -1.2321,1.3351 -0.3977,0.4403 -0.7811,0.8877 -1.1788,1.328 -0.1385,0.1527 -0.2912,0.2983 -0.4226,0.4651 0.2805,-0.0532 0.5007,-0.2095 0.7315,-0.3337 0.6675,-0.3658 1.3351,-0.7279 1.9955,-1.1043 0.7173,-0.4048 1.4345,-0.8061 2.1837,-1.154 1.0014,-0.4581 2.0346,-0.8132 3.1247,-1.0262 0.6463,-0.1278 1.289,-0.213 1.9494,-0.2059 0.4971,0.0071 0.9942,0 1.4949,0 0.2024,-0.1527 0.1527,-0.3977 0.1988,-0.5966 0.2202,-0.9622 0.5255,-1.8961 0.8877,-2.8157 0.3125,-0.8025 0.6889,-1.5766 1.115,-2.3293 0.2272,-0.4013 0.4829,-0.7883 0.7279,-1.1825 0.5326,-0.8486 1.1504,-1.6404 1.7789,-2.4216 0.5078,-0.632 1.0617,-1.2285 1.5979,-1.8393 0.561,-0.6391 1.1326,-1.2676 1.6901,-1.9103 0.1527,-0.174 0.2628,-0.3799 0.4048,-0.5894 -0.2841,-0.2131 -0.5965,-0.3409 -0.9054,-0.4581 -1.2109,-0.4616 -2.4359,-0.8948 -3.6502,-1.3564 -0.5611,-0.213 -1.1114,-0.4545 -1.6511,-0.7137 -0.3693,-0.1775 -0.7457,-0.3622 -1.0333,-0.664 -0.0497,-0.0497 -0.0817,-0.1136 -0.1314,-0.1811 0.1988,-0.2947 0.5113,-0.3657 0.8167,-0.3941 0.4403,-0.0355 0.8841,-0.0177 1.3209,0.0888 0.6533,0.1598 1.3102,0.316 1.9671,0.4651 0.2059,0.0462 0.419,0.0604 0.7208,0.103 -0.3693,-0.2415 -0.6995,-0.3693 -1.0262,-0.5078 -0.5077,-0.213 -1.019,-0.4296 -1.4025,-0.8379 -0.277,-0.2948 -0.3658,-0.6427 -0.3835,-1.0582 0.3586,-0.0284 0.6995,-0.0106 1.0404,-0.0106 0.3302,-0.0036 0.6604,0 1.0048,0 0.0071,-0.0604 0.0142,-0.103 0.0213,-0.1527 -0.3373,-0.2166 -0.6711,-0.4297 -0.9729,-0.6249 -0.0603,-0.2344 0.0178,-0.3871 0.1421,-0.5114 0.1207,-0.1171 0.2698,-0.2059 0.4438,-0.3373 0.0533,-0.2698 -0.1065,-0.561 -0.1704,-0.8593 -0.1101,-0.5077 -0.1066,-1.0084 0.0426,-1.5019 0.1917,-0.6321 0.5219,-1.1967 0.9374,-1.7186 0.3551,-0.4439 0.7279,-0.87351 1.1611,-1.24634 0.4154,-0.35507 0.838,-0.6995 1.2783,-1.02262 0.7385,-0.54682 1.4771,-1.09009 2.2405,-1.6014 0.7528,-0.50421 1.5339,-0.96936 2.3045,-1.44516 0.0852,-0.05326 0.1881,-0.14914 0.3195,-0.02486 -0.1172,0.2166 -0.3124,0.37283 -0.5077,0.52197 -0.6782,0.52196 -1.3671,1.02972 -2.0559,1.54103 -0.5469,0.40834 -1.0972,0.80958 -1.644,1.21792 -0.1776,0.13492 -0.3516,0.27341 -0.522,0.42254 -0.419,0.36928 -0.8522,0.72791 -1.2463,1.12202 -0.5859,0.5859 -1.1292,1.2073 -1.4985,1.9458 -0.2059,0.4155 -0.3444,0.8416 -0.3479,1.3174 0,0.529 0.2556,0.9054 0.6711,1.193 0.5042,0.3516 1.0865,0.554 1.6972,0.6676 0.8238,0.1527 1.6476,0.3054 2.4785,0.4296 0.5468,0.0817 1.083,0.206 1.6014,0.38 0.2379,0.0781 0.4687,0.1811 0.6853,0.3053 0.1207,0.071 0.2024,0.2024 0.3124,0.316 -0.3018,0.2379 -0.6249,0.3232 -0.9693,0.3445 -0.7386,0.039 -1.4523,-0.0852 -2.1589,-0.2805 -0.9374,-0.2592 -1.8783,-0.5114 -2.8193,-0.7599 -0.1669,-0.0462 -0.3409,-0.0781 -0.5113,-0.1136 0.1527,0.2059 0.4048,0.3728 0.7243,0.4829 0.5682,0.1988 1.154,0.3231 1.7399,0.4438 0.4545,0.0923 0.9126,0.1705 1.3529,0.3054 0.49,0.1491 0.9835,0.3018 1.4132,0.5788 0.2095,0.1349 0.3764,0.316 0.5574,0.5326 C 44.3811,18.393 44.129,18.361 43.8876,18.3433 43.6,18.322 43.3194,18.251 43.0354,18.2155 c -0.7847,-0.0959 -1.5446,-0.3019 -2.308,-0.4865 -0.838,-0.2024 -1.6724,-0.4154 -2.514,-0.6001 -0.3302,-0.071 -0.6746,-0.0745 -1.0261,-0.11 0.0781,0.245 0.1704,0.3941 0.3834,0.5077 0.3942,0.2131 0.7919,0.4261 1.2109,0.593 0.9835,0.3941 2.0168,0.6533 3.0359,0.9516 0.4687,0.1349 0.9303,0.2876 1.3919,0.4403 0.1314,0.0426 0.2556,0.103 0.3906,0.1598 0.0319,0.0603 0.0674,0.1207 0.1171,0.2095 -0.1633,0.0781 -0.3124,0.1775 -0.4758,0.2201 -0.2059,0.0533 -0.4225,0.0746 -0.632,0.0852 -0.8628,0.0391 -1.7008,-0.1136 -2.5459,-0.2734 -0.9587,-0.1846 -1.8997,-0.4332 -2.8513,-0.6356 -0.387,-0.0816 -0.774,-0.2059 -1.193,-0.1881 0.0497,0.1633 0.1882,0.2023 0.3053,0.2556 0.3658,0.1598 0.7315,0.3267 1.1079,0.4581 0.6711,0.2343 1.3493,0.4474 2.0275,0.664 0.7492,0.2343 1.5055,0.458 2.2547,0.6959 0.1385,0.0426 0.2663,0.1278 0.4048,0.1988 -0.0852,0.3196 -0.2273,0.5824 -0.387,0.8416 -0.4403,0.7208 -0.9659,1.3812 -1.4843,2.0488 -0.4154,0.5326 -0.8699,1.0332 -1.2996,1.5552 -0.6071,0.7386 -1.2072,1.4842 -1.8144,2.2228 -0.6888,0.838 -1.2534,1.7505 -1.7292,2.7128 -0.4616,0.9338 -0.838,1.8997 -1.012,2.9258 -0.0852,0.5078 -0.1527,1.0191 -0.2308,1.5304 -0.0604,0.3906 -0.1207,0.7812 -0.1882,1.2073 -0.3941,0.0177 -0.7989,0.0035 -1.2001,-0.0107 -0.1634,-0.0071 -0.3232,-0.0497 -0.4829,-0.0568 -0.3303,-0.0106 -0.664,-0.0035 -0.9943,-0.0071 -0.774,-0.0106 -1.5232,0.142 -2.2654,0.3338 -1.2321,0.3195 -2.4003,0.7918 -3.5223,1.3599 -0.7244,0.3658 -1.4203,0.7812 -2.1198,1.186 -0.7777,0.4474 -1.5482,0.9019 -2.3151,1.367 -0.4474,0.2699 -0.8806,0.561 -1.3138,0.8487 -0.0888,0.0603 -0.1669,0.142 -0.2308,0.2237 -0.1492,0.1953 -0.277,0.4012 -0.4261,0.5965 -0.0888,0.1172 -0.1918,0.2308 -0.3089,0.3196 -0.2699,0.2024 -0.5646,0.1668 -0.8629,-0.1101 0.245,-0.3125 0.4865,-0.6356 0.7457,-0.941 0.5681,-0.6782 1.1575,-1.3422 1.7221,-2.0239 0.7812,-0.9445 1.5446,-1.9032 2.3258,-2.8548 0.3515,-0.4261 0.7208,-0.8416 1.0759,-1.2641 0.4012,-0.4829 0.7918,-0.9694 1.1859,-1.4558 0.4119,-0.5042 0.8202,-1.0084 1.2357,-1.5091 0.3835,-0.4652 0.7705,-0.9232 1.1575,-1.3848 0.2699,-0.3196 0.554,-0.6285 0.8238,-0.9481 0.49,-0.5823 0.9765,-1.1682 1.4665,-1.7505 0.3835,-0.4509 0.7705,-0.8948 1.1575,-1.3422 0.4652,-0.5397 0.9268,-1.0865 1.4026,-1.6191 0.4012,-0.451 0.8238,-0.8877 1.2321,-1.3351 0.3977,-0.4368 0.7741,-0.8948 1.1824,-1.3245 0.3693,-0.387 0.7705,-0.7421 1.1576,-1.1114 0.0284,-0.0426 0.0603,-0.039 0.1597,-0.0568 z m -9.6545,11.849 c -0.1527,0.0816 -0.2841,0.1811 -0.3054,0.3657 -0.0142,0.0142 -0.0284,0.0319 -0.0426,0.0462 0.0107,-0.0178 0.0213,-0.0391 0.032,-0.0569 0.1456,-0.0887 0.2876,-0.1775 0.3053,-0.3621 0.0178,-0.0107 0.0356,-0.0213 0.0214,-0.0107 0.0071,-0.0248 0,-0.0035 -0.0107,0.0178 z m 0.0959,-0.1882 0.0177,0.0142 0.0036,-0.0249 z"
       fill="#ffffff"
       id="path6" />
    <path
       d="m 26.297,33.3737 c -0.0177,0.1882 -0.1597,0.277 -0.3053,0.3622 l 0.0106,0.0106 c 0.0213,-0.1846 0.1527,-0.284 0.3054,-0.3657 z"
       fill="#0055a6"
       id="path8" />
    <path
       d="m 26.4036,33.195 0.0189,-0.0095 -0.0032,0.0221 z"
       fill="#0055a6"
       id="path10" />
    <path
       d="m 26.307,33.3825 c 0.0067,-0.02 0.0167,-0.04 0.01,-0.02 0.0166,-0.01 -0.0033,0 -0.02,0.01 z"
       fill="#0055a6"
       id="path12" />
    <path
       d="m 25.9892,33.7359 c -0.0098,0.0164 -0.0197,0.036 -0.0295,0.0524 0.0131,-0.0131 0.0262,-0.0295 0.0393,-0.0426 z"
       fill="#0055a6"
       id="path14" />
  </g>
  <defs
     id="defs33">
    <clipPath
       id="clip0_84_249">
      <rect
         width="60.235298"
         height="60.235298"
         fill="#ffffff"
         id="rect30"
         x="0"
         y="0" />
    </clipPath>
  </defs>

  </svg>

  <!-- Vertical space of 17px -->
  <rect width="100%" height="17" fill="none"/>

  <!-- Second SVG -->
  <svg width="100%" height="64" viewBox="0 0 389 64" fill="none" xmlns="http://www.w3.org/2000/svg">
<path d="M131.566 15.5455C129.079 16.5187 129.079 16.5187 128.082 15.0567C129.161 13.1665 130.272 11.2114 131.456 9.13095C135.191 8.58596 138.491 9.33857 141.234 11.9597C144.091 14.689 145.256 18.1926 146.152 21.7783C146.993 25.1521 147.519 28.5994 147.112 32.0597C146.788 34.8322 146.308 37.6221 145.503 40.2951C144.507 43.6083 142.075 46.0089 138.742 47.8429C139.433 48.3576 140.004 48.7858 140.58 49.2054C143.889 51.6146 144.589 55.2479 142.399 58.5914C141.494 59.9755 140.292 61.0784 138.774 61.8051C132.361 64.8718 126.062 64.8415 119.991 60.9746C118.57 60.0706 117.628 58.786 117.02 57.2462C116.024 54.7375 116.659 52.5791 118.488 50.676C119.201 49.9363 120.065 49.3265 120.979 48.5566C119.991 47.778 118.968 47.06 118.058 46.2338C114.406 42.9033 113.482 38.7077 114.086 34.1488C114.575 30.4376 115.379 26.7654 115.873 23.0586C116.06 21.6615 115.832 20.1952 115.649 18.7765C115.571 18.1666 115.169 17.574 114.853 17.0074C114.264 15.9434 113.272 15.4762 112.033 15.5065C110.735 15.5368 109.876 16.3024 109.418 17.3188C109.044 18.1536 108.847 19.1225 108.847 20.0352C108.842 27.2412 108.897 34.4429 108.957 41.649C108.966 42.5097 109.108 43.3705 109.172 44.2312C109.263 45.4423 109.679 46.4761 110.849 47.1292C111.553 47.5228 112.047 48.0764 111.837 48.8983C111.59 49.8542 110.735 50.0228 109.866 50.0315C105.757 50.0747 101.643 50.1223 97.5334 50.105C95.9472 50.1007 95.7415 49.8066 95.6592 47.9899C98.1231 46.8783 98.3379 44.7113 98.3105 42.3886C98.2282 36.2639 98.2236 30.1392 98.1505 24.0145C98.1322 22.4314 98.0499 20.844 97.8625 19.2739C97.474 16.0515 94.6536 14.7582 91.7372 16.4192C90.3201 17.228 89.2779 18.3526 88.8299 19.8881C87.3763 24.8752 87.0106 29.9575 87.5317 35.0831C87.7191 36.9257 88.2539 38.7466 88.775 40.5417C89.1682 41.8955 90.0184 43.0028 91.664 43.6256C92.3908 43.4051 93.2411 43.1455 94.0867 42.886C95.2981 43.3705 95.2112 44.162 94.6444 44.9925C93.4925 46.6837 92.2948 48.3403 91.1658 49.945C84.9901 51.3161 81.0269 48.2797 78.7551 43.7597C77.402 41.065 76.698 38.1714 76.4375 35.2215C76.0032 30.3122 76.2044 25.4289 77.6763 20.658C79.0156 16.3283 81.5435 12.8205 85.9364 10.8222C91.8469 8.1318 97.442 8.96227 102.694 12.4961C102.818 12.5783 102.941 12.6648 102.891 12.6302C105.3 11.5532 107.512 10.1561 109.944 9.56781C115.173 8.30914 120.097 9.19151 124.115 12.8637C127.026 15.5282 127.735 19.0014 127.314 22.6174C126.917 26.0431 126.089 29.4212 125.545 32.8296C125.171 35.1826 125.006 37.5572 125.811 39.8842C126.547 42.008 128.498 43.604 130.354 43.617C132.123 43.63 134.212 42.0036 134.957 39.9404C135.277 39.0581 135.575 38.1411 135.666 37.2241C136.26 31.2422 136.023 25.2991 134.327 19.4772C133.883 17.9979 133.431 16.3802 131.566 15.5455ZM132.279 52.3456C132.242 52.2504 132.201 52.1552 132.16 52.0644C131.41 50.4381 129.815 50.1137 128.553 51.4286C127.068 52.9771 127.159 56.2081 128.741 57.6787C129.76 58.626 131.493 58.2583 132.096 57.0342C132.151 56.9218 132.206 56.8007 132.251 56.6839C132.814 55.2955 132.823 53.7383 132.279 52.3456Z" fill="black"/>
<path d="M168.72 8.61191C169.442 10.926 171.17 12.8767 170.974 15.7531C170.041 15.6017 169.31 15.5671 168.642 15.3551C166.773 14.7582 165.282 15.1172 163.929 16.536C161.63 18.9409 160.565 21.8345 160.117 24.9358C159.29 30.6453 159.852 36.2639 161.685 41.7701C164.19 49.3005 169.68 53.6561 177.739 55.1484C183.576 56.2297 189.409 55.9616 195.123 54.3352C197.404 53.6864 199.52 52.6873 201.043 50.8533C201.491 50.317 201.833 49.7028 202.396 48.8766H182.955C181.816 47.2373 180.486 45.611 179.535 43.5694C180.317 43.1628 180.957 42.8298 181.652 42.4664C182.977 40.3124 183.119 37.821 183.188 35.4075C183.261 32.7604 182.886 30.1003 182.689 27.4488C182.662 27.0941 182.539 26.7438 182.438 26.3978C181.903 24.6244 180.651 23.4868 179.22 23.4608C177.748 23.4349 176.029 24.659 175.609 26.3113C175.184 27.9808 174.877 29.7023 174.759 31.4152C174.562 34.2137 174.525 37.0165 175.17 39.7977C175.613 41.7095 176.372 43.2234 178.653 43.4007C178.69 45.0184 178.69 45.0184 174.448 49.1275C171.44 48.9502 169.054 47.605 167.202 45.3212C164.249 41.6749 163.769 37.4058 163.87 33.0329C163.907 31.3935 164.199 29.7369 164.547 28.1236C165.854 22.0681 170.032 18.5732 176.198 17.3794C182.296 16.1986 187.649 17.773 191.503 22.7169C192.325 23.7766 192.929 24.9704 193.299 26.242C194.314 29.7326 194.652 33.2751 193.989 36.9084C193.509 39.5339 192.467 41.8522 190.506 44.0149H202.364C202.364 42.2761 202.382 40.7104 202.359 39.1489C202.245 31.5103 202.121 23.8761 202.003 16.2375C201.993 15.6622 202.012 15.0826 201.989 14.5074C201.934 12.9719 201.591 11.5921 200.019 10.8351C199.571 10.6189 199.283 10.1863 199.278 9.71055C199.278 9.63269 199.278 9.55051 199.274 9.46833C199.264 8.7287 199.882 8.11882 200.663 8.10584C203.438 8.05394 209.559 7.93716 212.507 7.87228C212.964 7.86362 213.421 7.89823 213.878 7.89823C214.729 7.89823 215.369 8.20965 215.62 9.01417C215.858 9.76245 215.456 10.3204 214.806 10.6275C213.042 11.458 212.96 12.9719 212.964 14.5074C212.983 19.1917 213.037 23.8761 213.069 28.5604C213.101 32.9636 213.115 37.3712 213.152 41.7744C213.161 42.886 213.22 44.707 213.334 45.8143C213.705 49.3135 212.05 52.0039 209.353 54.1362C207.739 55.4122 205.87 56.4763 203.964 57.337C197.39 60.2999 190.447 61.4807 183.142 61.1649C178.644 60.9703 174.151 60.8362 169.794 59.6987C163.248 57.9945 157.498 55.0489 153.685 49.4822C151.51 46.303 150.216 42.7822 149.649 39.0235C148.643 32.3711 148.799 25.8052 151.313 19.4296C152.332 16.8431 153.772 14.4814 155.944 12.5783C159.518 9.44238 163.806 8.41294 168.72 8.61191Z" fill="black"/>
<path d="M339.412 46.8437C338.534 45.6672 337.537 44.4172 336.641 43.1066C336.093 42.3107 336.363 41.5971 337.213 41.0996C340.084 41.3332 341.437 40.5503 342.182 37.9594C344.024 31.5622 344.106 25.165 341.798 18.8457C341.126 17.0074 340.152 15.273 338.548 13.9624C336.294 12.1198 333.931 11.471 330.772 11.804C331.855 13.2357 333.071 14.6112 334.022 16.1424C335.864 19.1095 336.619 22.4011 336.975 25.8052C337.4 29.8494 337.14 33.8287 336.047 37.7691C333.058 48.5566 320.565 50.3472 313.434 44.5989C311.688 43.1931 310.499 41.3029 309.699 39.2484C307.395 33.327 307.212 27.3104 308.872 21.2246C309.818 17.76 311.541 14.7063 314.704 11.9857C313.63 11.9857 312.986 11.9338 312.359 11.9943C308.419 12.3836 305.594 14.2478 303.866 17.6606C302.769 19.8319 302.001 22.094 301.764 24.4643C301.302 29.0795 301.389 33.6773 303.062 38.1238C303.29 38.7293 303.574 39.3219 303.88 39.8972C304.529 41.1126 305.535 41.7225 307.025 41.5192C307.532 41.45 308.058 41.5062 308.451 41.5062C309.342 42.4448 309.151 43.2061 308.515 43.9717C307.624 45.04 306.751 46.1214 305.868 47.2027C300.676 47.6309 295.108 44.6291 292.713 38.6947C289.869 31.6401 289.764 24.473 292.735 17.401C295.272 11.3542 300.237 7.93283 306.774 6.53574C311.441 5.54091 316.158 5.81341 320.812 6.81689C321.959 7.06343 323.006 7.02883 324.153 6.76499C329.698 5.49333 335.279 5.03917 340.806 6.84717C346.282 8.63354 350.231 12.0073 352.247 17.2064C354.762 23.6858 355.022 30.2646 352.887 36.8824C351.818 40.2043 349.939 43.0028 346.78 44.9622C344.595 46.3117 342.241 46.887 339.412 46.8437ZM322.475 15.9434C320.688 18.0239 319.472 20.7662 319.065 23.0802C318.307 27.3969 318.745 31.6963 319.207 35.9871C319.335 37.1549 319.902 38.353 320.537 39.3911C321.785 41.4327 324.002 41.2986 325.095 39.1359C325.543 38.2449 325.753 37.2328 325.995 36.2596C326.151 35.6324 326.192 34.9793 326.247 34.3348C326.64 29.871 326.818 25.4159 325.433 21.056C324.839 19.2047 324.272 17.3188 322.475 15.9434Z" fill="black"/>
<path d="M232.2 46.9302C231.619 48.2321 230.618 48.3879 229.768 48.4052C225.43 48.4744 221.092 48.4398 216.754 48.4225C216.548 48.4225 216.342 48.2667 216.159 48.1889C215.538 46.4544 215.538 46.4544 218.006 44.8886C218.143 43.9198 218.459 42.7346 218.463 41.5408C218.491 36.3547 218.436 31.1686 218.39 25.9825C218.376 24.3302 218.194 22.678 218.248 21.03C218.477 14.3344 222.495 9.60674 229.334 8.00204C234.499 6.79094 239.692 6.6136 244.889 7.75549C247.998 8.4389 250.791 9.69325 252.637 12.3231C254.598 15.1216 254.836 18.132 253.497 21.1727C252.432 23.5949 249.927 24.8147 246.933 24.4427C245.589 24.274 244.711 24.7152 243.998 25.6322C243.39 26.4151 243.509 27.8554 244.172 28.6816C244.93 29.6331 245.954 29.9878 247.188 29.7759C247.412 29.7369 247.627 29.6634 247.851 29.6158C251.362 28.9065 253.419 29.9792 254.461 33.2534C255.668 37.0511 255.659 40.7579 253.213 44.2225C251.508 46.6361 249.072 47.8039 246.119 47.9553C243.234 48.1067 240.332 48.0678 237.438 48.0591C235.715 48.0548 235.189 47.6698 234.654 46.0608C234.129 44.4864 233.699 42.886 233.237 41.3419C234.266 39.9404 234.54 39.8064 235.678 40.745C237.063 41.8869 238.604 42.1334 240.341 41.982C243.463 41.7095 244.45 37.7129 242.988 35.9265C242.43 35.2474 241.703 34.9706 240.816 34.9274C239.76 34.8755 238.695 34.8192 237.648 34.6678C235.998 34.4299 234.887 33.4784 234.321 32.0294C233.178 29.0968 233.004 26.0734 234.156 23.1537C234.883 21.3111 236.455 20.139 238.727 20.1866C239.413 20.1995 240.094 20.2471 240.78 20.2471C242.654 20.2558 243.696 19.1571 243.536 17.3621C243.294 14.6155 241.552 12.9243 238.558 12.6388C237.658 12.5523 236.725 12.6085 235.825 12.708C231.509 13.2011 229.32 15.9131 229.128 19.8881C228.959 23.3311 229.183 26.7957 229.233 30.2473C229.279 33.4784 229.32 36.7094 229.375 39.9404C229.393 40.9483 229.388 41.9561 229.48 42.9595C229.567 43.9111 229.923 44.7329 230.805 45.3558C231.368 45.7624 231.747 46.4068 232.2 46.9302Z" fill="black"/>
<path d="M258.146 32.2889C261.359 31.7223 264.335 31.1946 267.311 30.6712C268.06 30.5415 268.801 30.3857 269.555 30.2863C270.264 30.1911 270.931 30.2387 271.32 30.9524C271.699 31.6574 271.384 32.2846 270.899 32.7214C268.371 35.0225 269.18 37.7129 269.848 40.373C269.962 40.8358 270.337 41.2727 270.689 41.6403C272.01 43.0158 273.646 42.9422 274.679 41.3721C275.274 40.4681 275.758 39.4387 276 38.4049C277.76 30.9783 277.76 23.569 275.53 16.2159C275.26 15.3292 274.839 14.4468 274.3 13.6812C273.345 12.3187 272.046 12.1587 270.853 13.3049C270.186 13.9451 269.505 14.8188 269.381 15.6579C269.144 17.2756 269.189 18.9538 269.354 20.5888C269.418 21.203 270.131 21.761 270.547 22.3492C270.876 22.812 271.205 23.2792 271.562 23.7852C271.214 24.2783 270.931 24.6763 270.552 25.2126C266.502 24.5811 262.47 23.9539 258.488 23.3311C257.016 13.452 264.28 4.29953 276.224 7.02451C281.148 8.1491 284.398 11.1639 286.039 15.5671C288.795 22.9634 289.028 30.5068 286.779 38.0719C285.897 41.0391 284.325 43.6473 281.733 45.6067C274.753 50.8793 261.341 49.8152 258.763 37.5312C258.406 35.8573 258.351 34.1272 258.146 32.2889Z" fill="black"/>
<path d="M357.248 31.7872C356.928 27.6521 358.03 23.8977 360.699 20.645C363.547 17.1761 367.273 15.2297 372.04 15.1086C375.4 15.0221 378.541 15.4935 381.411 17.2367C386.005 20.0265 388.145 24.1875 388.606 29.1487C388.853 31.7872 388.657 34.4386 387.848 37.0554C386.202 42.3886 381.366 46.5193 374.664 47.06C365.796 47.7737 359.74 42.8903 357.756 35.6237C357.422 34.3867 357.413 33.0675 357.248 31.7872ZM368.402 30.7058C368.402 31.7136 368.315 32.7258 368.42 33.7249C368.649 35.8919 369.289 37.9551 370.537 39.8064C371.899 41.8263 374.468 41.8652 375.702 39.7891C376.36 38.6818 376.895 37.4144 377.069 36.1687C377.389 33.9023 377.594 31.5839 377.489 29.3044C377.38 26.9514 376.973 24.5898 375.579 22.5049C374.897 21.4798 373.997 21.0473 372.74 21.0646C371.41 21.0819 370.674 21.7956 370.089 22.7991C368.644 25.2602 368.242 27.9376 368.402 30.7058Z" fill="black"/>
<defs>
<clipPath id="clip0_84_249">
<rect width="60.2353" height="60.2353" fill="white"/>
</clipPath>
</defs>
  </svg>

</svg>
